<?xml version="1.0" encoding="UTF-8"?>
<svg version="1.1" xmlns="http://www.w3.org/2000/svg" width="500" height="338">
<path d="M0 0 C165 0 330 0 500 0 C500 111.54 500 223.08 500 338 C335 338 170 338 0 338 C0 226.46 0 114.92 0 0 Z " fill="#003D69" transform="translate(0,0)"/>
<path d="M0 0 C1.07378906 -0.020625 2.14757812 -0.04125 3.25390625 -0.0625 C19.685701 -0.14159408 32.52756403 4.91536315 44.234375 16.3515625 C56.20481468 28.57375498 61.4444766 42.6383657 61.43603516 59.48608398 C60.98841599 82.73358728 49.87905363 102.81332075 34 119.25 C33.33226562 119.95511719 32.66453125 120.66023438 31.9765625 121.38671875 C19.43542108 133.63357346 2.64850375 142.56230058 -13 150.25 C-13.69464355 150.59256836 -14.38928711 150.93513672 -15.10498047 151.28808594 C-69.93164831 178.13650959 -137.93612475 165.69305605 -194.70703125 149.91943359 C-195.42446503 149.7262706 -196.1418988 149.5331076 -196.881073 149.33409119 C-198.80711753 148.81461641 -200.72824822 148.27701696 -202.64892578 147.73803711 C-208.18599703 146.9316401 -212.35433631 149.31602481 -217.2734375 151.640625 C-218.74598999 152.32983032 -218.74598999 152.32983032 -220.24829102 153.03295898 C-221.79601196 153.75914429 -221.79601196 153.75914429 -223.375 154.5 C-237.64276065 161.10255962 -251.68425615 166.61338502 -267 170.25 C-268.29164063 170.5903125 -268.29164063 170.5903125 -269.609375 170.9375 C-285.04068598 174.47588978 -304.79584476 174.29083022 -318.625 166.1875 C-320.09587576 165.22727712 -321.55627184 164.25057608 -323 163.25 C-323.99 162.59 -324.98 161.93 -326 161.25 C-330.06887325 149.04338024 -326.49677834 133.10279984 -324.4375 120.6875 C-324.16787848 119.0028074 -323.89851507 117.31807348 -323.62939453 115.63330078 C-321.78362878 104.25107863 -319.67993791 92.92277118 -317.375 81.625 C-317.23528778 80.93469696 -317.09557556 80.24439392 -316.95162964 79.53317261 C-311.56362709 53.14341723 -311.56362709 53.14341723 -304.125 47.60546875 C-303.073125 46.93451172 -303.073125 46.93451172 -302 46.25 C-301.38125 45.85425781 -300.7625 45.45851562 -300.125 45.05078125 C-289.42535529 39.05452203 -277.65762083 38.79298253 -265.73828125 38.91381836 C-263.26789277 38.93732971 -260.79859676 38.9343675 -258.328125 38.92773438 C-244.86913425 38.95066438 -231.58445933 39.94311756 -218.5 43.3125 C-217.68233154 43.52092529 -216.86466309 43.72935059 -216.0222168 43.9440918 C-201.08704063 47.93865987 -186.16726737 53.4683074 -172.61450195 60.95043945 C-167.3528589 63.67550246 -163.5889035 63.31358604 -158 62.25 C-156.89140625 62.09144531 -155.7828125 61.93289062 -154.640625 61.76953125 C-141.77675963 59.08708928 -130.40200417 52.90919452 -118.73390198 47.08544922 C-112.10892188 43.78643023 -105.40751761 40.66350715 -98.6875 37.5625 C-97.53717285 37.03003662 -96.3868457 36.49757324 -95.20166016 35.94897461 C-89.60860856 33.36394078 -84.00850292 30.79475682 -78.40234375 28.23828125 C-68.92723202 23.91720583 -59.50181453 19.56515535 -50.20703125 14.8671875 C-39.0280893 9.23005965 -28.07280423 4.64328528 -16 1.25 C-15.38278076 1.06969238 -14.76556152 0.88938477 -14.12963867 0.70361328 C-9.51327084 -0.2796736 -4.70041559 0.02193893 0 0 Z " fill="#CED0D2" transform="translate(396,99.75)"/>
<path d="M0 0 C1.07378906 -0.020625 2.14757812 -0.04125 3.25390625 -0.0625 C19.685701 -0.14159408 32.52756403 4.91536315 44.234375 16.3515625 C55.35061515 27.7015906 61.3663912 41.25082212 61.3125 57.0625 C61.32861328 57.99642578 61.34472656 58.93035156 61.36132812 59.89257812 C61.3657511 66.26608052 60.75175289 72.41496635 58 78.25 C55 80.25 55 80.25 52 80.25 C52.20625 81.466875 52.4125 82.68375 52.625 83.9375 C53.09963844 87.59806773 52.76581384 89.92611512 51 93.25 C50.01 93.25 49.02 93.25 48 93.25 C48.33 94.24 48.66 95.23 49 96.25 C48.0625 98.4375 48.0625 98.4375 47 100.25 C46.34 100.25 45.68 100.25 45 100.25 C44.34 102.56 43.68 104.87 43 107.25 C40.525 107.745 40.525 107.745 38 108.25 C37.8453125 109.11625 37.8453125 109.11625 37.6875 110 C36.89103535 112.60661158 35.80934723 114.2235311 34 116.25 C33.34 116.25 32.68 116.25 32 116.25 C31.67 117.24 31.34 118.23 31 119.25 C30.34 119.25 29.68 119.25 29 119.25 C28.67 120.57 28.34 121.89 28 123.25 C24.535 123.745 24.535 123.745 21 124.25 C20.67 125.24 20.34 126.23 20 127.25 C19.0409375 127.4665625 19.0409375 127.4665625 18.0625 127.6875 C17.381875 127.873125 16.70125 128.05875 16 128.25 C14.8499169 130.21672915 14.8499169 130.21672915 14 132.25 C13.34 132.58 12.68 132.91 12 133.25 C11.01 132.92 10.02 132.59 9 132.25 C8.8453125 133.2090625 8.8453125 133.2090625 8.6875 134.1875 C8.460625 134.868125 8.23375 135.54875 8 136.25 C7.01 136.58 6.02 136.91 5 137.25 C4.566875 137.765625 4.13375 138.28125 3.6875 138.8125 C1.21416874 140.91941181 -0.8637368 140.45908421 -4 140.25 C-4.33 141.24 -4.66 142.23 -5 143.25 C-7.31 143.58 -9.62 143.91 -12 144.25 C-12 139.1005999 -11.45728065 137.08588873 -8.6875 132.6875 C-5.46947393 127.32412322 -3.42828744 122.3147282 -2 116.25 C-1.82799072 115.63133057 -1.65598145 115.01266113 -1.47875977 114.37524414 C1.2968949 102.05394183 -0.12153583 85.92326684 -6.7265625 75.17578125 C-7.14679688 74.54027344 -7.56703125 73.90476562 -8 73.25 C-8.5775 72.363125 -9.155 71.47625 -9.75 70.5625 C-20.19264156 59.82978506 -35.44867201 55.19516128 -50.06640625 54.94921875 C-53.23203414 54.91981215 -56.39679122 54.92394579 -59.5625 54.9375 C-60.81445663 54.93923721 -60.81445663 54.93923721 -62.09170532 54.94100952 C-78.88108457 54.98673974 -95.32039768 56.34357509 -112 58.25 C-114.59223748 58.52930378 -117.18468543 58.80666134 -119.77734375 59.08203125 C-132.43113492 60.35383665 -132.43113492 60.35383665 -145 62.25 C-144 59.25 -144 59.25 -141.48510742 57.73876953 C-140.36982666 57.20880371 -139.2545459 56.67883789 -138.10546875 56.1328125 C-137.4950473 55.83948029 -136.88462585 55.54614807 -136.25570679 55.243927 C-134.23762359 54.27750266 -132.21282644 53.32613959 -130.1875 52.375 C-128.77626184 51.70353352 -127.365377 51.03132398 -125.95483398 50.35839844 C-121.64383112 48.30668432 -117.32303632 46.27621008 -113 44.25 C-112.0338678 43.79639099 -112.0338678 43.79639099 -111.04821777 43.33361816 C-100.19796821 38.23972046 -89.31612908 33.2155847 -78.41015625 28.2421875 C-68.93257567 23.91953925 -59.50440353 19.56646393 -50.20703125 14.8671875 C-39.0280893 9.23005965 -28.07280423 4.64328528 -16 1.25 C-15.07417114 0.97953857 -15.07417114 0.97953857 -14.12963867 0.70361328 C-9.51327084 -0.2796736 -4.70041559 0.02193893 0 0 Z " fill="#D5D7D9" transform="translate(396,99.75)"/>
<path d="M0 0 C0.97308105 0.00942627 1.94616211 0.01885254 2.94873047 0.02856445 C9.74930499 0.17174045 15.767225 0.83800324 22.125 3.375 C23.115 3.72691406 24.105 4.07882813 25.125 4.44140625 C35.60418425 8.41039729 44.09118924 14.07198446 49.125 24.375 C49.79684634 26.81604172 50.01659035 28.82737313 50.125 31.375 C28.36287476 48.32338325 1.60831477 51.67515617 -25.07543945 48.5456543 C-35.05564601 47.20919031 -44.42968064 44.82399023 -53.875 41.375 C-54.61282715 41.106875 -55.3506543 40.83875 -56.11083984 40.5625 C-60.71656832 38.8781193 -65.30146766 37.14481105 -69.875 35.375 C-69.875 34.385 -69.875 33.395 -69.875 32.375 C-56.33054998 19.40866675 -37.17828902 10.09996623 -19.875 3.375 C-19.17020508 3.08947266 -18.46541016 2.80394531 -17.73925781 2.50976562 C-11.77990794 0.27599957 -6.33024579 -0.09481667 0 0 Z " fill="#033D68" transform="translate(342.875,153.625)"/>
<path d="M0 0 C5.24094777 2.73984471 8.03007342 6.81678275 9.86328125 12.31640625 C10.53640172 21.05402775 10.25142666 28.21496707 4.48828125 35.19140625 C-0.13324618 38.93264274 -3.87260342 39.54584164 -9.66015625 39.77734375 C-12.13671875 39.31640625 -12.13671875 39.31640625 -19.13671875 35.31640625 C-19.13671875 40.92640625 -19.13671875 46.53640625 -19.13671875 52.31640625 C-22.10671875 52.31640625 -25.07671875 52.31640625 -28.13671875 52.31640625 C-28.13671875 35.15640625 -28.13671875 17.99640625 -28.13671875 0.31640625 C-25.49671875 0.31640625 -22.85671875 0.31640625 -20.13671875 0.31640625 C-19.80671875 1.30640625 -19.47671875 2.29640625 -19.13671875 3.31640625 C-18.70359375 2.84203125 -18.27046875 2.36765625 -17.82421875 1.87890625 C-13.47492822 -2.14821461 -5.36897117 -1.71767816 0 0 Z " fill="#B7BEC7" transform="translate(187.13671875,73.68359375)"/>
<path d="M0 0 C4.20750639 1.58773826 6.76618723 3.08567829 9 7 C9.25630289 9.62145494 9.3506943 11.99526167 9.29296875 14.609375 C9.28872391 15.33618469 9.28447906 16.06299438 9.28010559 16.81182861 C9.2633613 19.12493504 9.22571885 21.43715855 9.1875 23.75 C9.17244758 25.32160197 9.15876015 26.89321764 9.14648438 28.46484375 C9.11347195 32.31023415 9.06172056 36.15496756 9 40 C6.36 40 3.72 40 1 40 C0.98541748 39.13721436 0.97083496 38.27442871 0.95581055 37.38549805 C0.89472246 34.18150353 0.82056451 30.97815375 0.73754883 27.7746582 C0.70431451 26.38870623 0.67627774 25.00261939 0.65356445 23.61645508 C0.61999383 21.62293157 0.56612 19.62978259 0.51171875 17.63671875 C0.48553467 16.43748779 0.45935059 15.23825684 0.43237305 14.00268555 C0.23367056 11.03547059 0.23367056 11.03547059 -1.31323242 9.10864258 C-4.17029369 7.23081435 -6.7006573 7.646499 -10 8 C-11.81559346 9.04308701 -11.81559346 9.04308701 -13 11 C-13.50768043 14.0968286 -13.50768043 14.0968286 -13.51171875 17.63671875 C-13.54716797 18.93544922 -13.58261719 20.23417969 -13.61914062 21.57226562 C-13.6422405 22.94400517 -13.6650229 24.3157501 -13.6875 25.6875 C-13.72067542 27.07099607 -13.75516531 28.45446129 -13.79101562 29.83789062 C-13.87363241 33.22517883 -13.94274058 36.61220357 -14 40 C-16.97 40 -19.94 40 -23 40 C-23.495 24.655 -23.495 24.655 -24 9 C-31.36746546 7.29814936 -31.36746546 7.29814936 -34.94921875 9.57421875 C-38.21596658 15.03124323 -37.78343254 20.56945457 -37.8125 26.8125 C-37.83763672 28.07771484 -37.86277344 29.34292969 -37.88867188 30.64648438 C-37.94750491 33.76463543 -37.98381506 36.88138367 -38 40 C-40.97 40 -43.94 40 -47 40 C-47.02464849 34.60653012 -47.04283531 29.21309275 -47.05493164 23.81958008 C-47.05997231 21.98331125 -47.06680477 20.14704646 -47.07543945 18.31079102 C-47.08751672 15.67723599 -47.09323081 13.04373384 -47.09765625 10.41015625 C-47.10281754 9.58411392 -47.10797882 8.75807159 -47.11329651 7.90699768 C-47.11349205 5.93763632 -47.06204152 3.96838386 -47 2 C-46 1 -46 1 -44.15234375 0.90234375 C-42.1015625 0.93489583 -40.05078125 0.96744792 -38 1 C-38 2.32 -38 3.64 -38 5 C-37.34 5 -36.68 5 -36 5 C-36 4.34 -36 3.68 -36 3 C-31.22719231 0.19905652 -26.38935573 0.33119106 -21 1 C-18.53674815 2.07913891 -17.0575346 3.22051061 -15 5 C-14.21625 4.360625 -13.4325 3.72125 -12.625 3.0625 C-8.47029367 -0.20191212 -5.19224987 -0.54146367 0 0 Z " fill="#BCC2C9" transform="translate(140,72)"/>
<path d="M0 0 C1.30453125 -0.02578125 2.6090625 -0.0515625 3.953125 -0.078125 C8.73228973 0.33488924 12.04883659 1.46857167 15.40063477 4.97851562 C17.15270904 7.92790933 17.09321158 9.91161289 17.04296875 13.328125 C17.0284668 15.06835938 17.0284668 15.06835938 17.01367188 16.84375 C16.98853516 18.0503125 16.96339844 19.256875 16.9375 20.5 C16.91719727 22.33304688 16.91719727 22.33304688 16.89648438 24.203125 C16.8611398 27.21919498 16.8117956 30.23437487 16.75 33.25 C18.07 33.25 19.39 33.25 20.75 33.25 C20.79254356 35.24954746 20.79080783 37.25041636 20.75 39.25 C19.75 40.25 19.75 40.25 15.9375 40.5 C12.03811667 40.49309844 12.03811667 40.49309844 9.75 38.5625 C9.09 38.129375 8.43 37.69625 7.75 37.25 C5.80510935 37.94224921 3.86252312 38.64815118 1.96484375 39.4609375 C-1.78143716 40.79559137 -5.34280791 40.91443932 -9.25 40.25 C-13.0526029 38.2449912 -14.86790841 36.82313738 -17.25 33.25 C-17.8516861 29.83658849 -17.8659647 26.66233543 -17.25 23.25 C-11.89900181 16.98541675 -4.96418465 16.15360593 2.83203125 15.49609375 C4.83138976 15.3466996 4.83138976 15.3466996 6.75 14.25 C7.40772428 11.22065509 7.40772428 11.22065509 7.75 8.25 C4.06233808 7.06994818 0.59889483 7.04006028 -3.25 7.25 C-6.49849977 8.97226496 -6.49849977 8.97226496 -7.25 12.25 C-10.22 12.25 -13.19 12.25 -16.25 12.25 C-16.11210108 9.28517326 -15.96055664 7.03765516 -13.91796875 4.7734375 C-9.00402043 0.68445861 -6.32652074 0.07442966 0 0 Z " fill="#B6BCC5" transform="translate(220.25,72.75)"/>
<path d="M0 0 C2.05078125 0.03255208 4.1015625 0.06510417 6.15234375 0.09765625 C6.15234375 1.41765625 6.15234375 2.73765625 6.15234375 4.09765625 C6.81234375 4.09765625 7.47234375 4.09765625 8.15234375 4.09765625 C8.15234375 3.43765625 8.15234375 2.77765625 8.15234375 2.09765625 C11.44564201 0.13104212 13.96530948 -0.1728938 17.77734375 -0.15234375 C18.73898438 -0.1575 19.700625 -0.16265625 20.69140625 -0.16796875 C23.15234375 0.09765625 23.15234375 0.09765625 25.15234375 2.09765625 C24.16234375 2.75765625 23.17234375 3.41765625 22.15234375 4.09765625 C22.22960693 4.75032471 22.30687012 5.40299316 22.38647461 6.07543945 C23.14552681 13.22165366 23.11481464 20.11786175 22.71484375 27.28515625 C22.66263672 28.33251953 22.61042969 29.37988281 22.55664062 30.45898438 C22.42872621 33.00564407 22.29387362 35.55172328 22.15234375 38.09765625 C24.46234375 38.09765625 26.77234375 38.09765625 29.15234375 38.09765625 C29.15234375 29.84765625 29.15234375 21.59765625 29.15234375 13.09765625 C29.48234375 13.09765625 29.81234375 13.09765625 30.15234375 13.09765625 C30.15234375 21.67765625 30.15234375 30.25765625 30.15234375 39.09765625 C27.18234375 39.09765625 24.21234375 39.09765625 21.15234375 39.09765625 C20.65734375 23.75265625 20.65734375 23.75265625 20.15234375 8.09765625 C12.78487829 6.39580561 12.78487829 6.39580561 9.203125 8.671875 C5.93637717 14.12889948 6.36891121 19.66711082 6.33984375 25.91015625 C6.31470703 27.17537109 6.28957031 28.44058594 6.26367188 29.74414062 C6.20483884 32.86229168 6.16852869 35.97903992 6.15234375 39.09765625 C3.18234375 39.09765625 0.21234375 39.09765625 -2.84765625 39.09765625 C-2.87230474 33.70418637 -2.89049156 28.310749 -2.90258789 22.91723633 C-2.90762856 21.0809675 -2.91446102 19.24470271 -2.9230957 17.40844727 C-2.93517297 14.77489224 -2.94088706 12.14139009 -2.9453125 9.5078125 C-2.95047379 8.68177017 -2.95563507 7.85572784 -2.96095276 7.00465393 C-2.9611483 5.03529257 -2.90969777 3.06604011 -2.84765625 1.09765625 C-1.84765625 0.09765625 -1.84765625 0.09765625 0 0 Z " fill="#B1BAC4" transform="translate(95.84765625,72.90234375)"/>
<path d="M0 0 C3.97708025 2.14150475 6.39039054 3.77111697 8 8 C8.67861308 13.05044737 9.21743495 18.49799213 6.9375 23.18359375 C4.31203198 26.15864854 1.89689569 27.36204203 -2.0625 27.625 C-6.41830366 26.93360259 -8.07967303 26.26389484 -11 23 C-13.16243948 18.46917443 -13.6413133 13.94304561 -13 9 C-10.48710621 2.34083147 -7.37239267 -1.03213497 0 0 Z " fill="#0A3F65" transform="translate(180,79)"/>
<path d="M0 0 C0.33 0.99 0.66 1.98 1 3 C-5.83853565 5.77310697 -12.34684537 7.59911627 -19.6640625 8.60546875 C-21.95321894 8.76006155 -21.95321894 8.76006155 -23 10 C-24.32491881 10.28243247 -25.66102503 10.51302207 -27 10.71875 C-27.804375 10.84636719 -28.60875 10.97398437 -29.4375 11.10546875 C-31.14583333 11.36848958 -32.85416667 11.63151042 -34.5625 11.89453125 C-35.366875 12.02214844 -36.17125 12.14976562 -37 12.28125 C-37.7425 12.39533203 -38.485 12.50941406 -39.25 12.62695312 C-41.0196495 12.83826715 -41.0196495 12.83826715 -42 14 C-61.357613 18.38191166 -81.32189992 20.13660029 -101.125 20.25 C-102.79622925 20.26401855 -102.79622925 20.26401855 -104.5012207 20.27832031 C-114.48657569 20.23939397 -123.54451667 19.63698889 -132 14 C-128.31616246 12.77205415 -126.78472298 13.70745789 -123.328125 15.2109375 C-117.24460171 17.27280278 -110.90802951 17.15524081 -104.5625 17.125 C-103.35110352 17.13080078 -103.35110352 17.13080078 -102.11523438 17.13671875 C-96.98457404 17.12845016 -92.082516 16.68460614 -87 16 C-85.824375 16.020625 -84.64875 16.04125 -83.4375 16.0625 C-79.95363459 16.1492123 -79.95363459 16.1492123 -76.5625 15 C-73 14 -73 14 -69.421875 14.05859375 C-64.35976806 14.12275227 -59.62011572 13.11454867 -54.6875 12.0625 C-53.79482422 11.88009766 -52.90214844 11.69769531 -51.98242188 11.50976562 C-48.57813888 10.80534288 -45.30144815 10.10048272 -42 9 C-40.60821588 8.80235018 -39.21139394 8.63865143 -37.8125 8.5 C-33.5327809 8.05799622 -29.26804041 7.54320514 -25 7 C-24.67 6.01 -24.34 5.02 -24 4 C-24 4.66 -24 5.32 -24 6 C-23.319375 5.690625 -22.63875 5.38125 -21.9375 5.0625 C-18.63523672 3.86806434 -15.47108011 3.46726078 -12 3 C-11.67 2.67 -11.34 2.34 -11 2 C-9.15400312 1.60545777 -7.29774178 1.25823134 -5.4375 0.9375 C-4.42558594 0.76089844 -3.41367188 0.58429688 -2.37109375 0.40234375 C-1.58863281 0.26957031 -0.80617187 0.13679687 0 0 Z " fill="#E2E4E6" transform="translate(228,164)"/>
<path d="M0 0 C2.97 0 5.94 0 9 0 C9 12.87 9 25.74 9 39 C6.03 39 3.06 39 0 39 C0 26.13 0 13.26 0 0 Z " fill="#B3BBC4" transform="translate(75,73)"/>
<path d="M0 0 C0.99 0.495 0.99 0.495 2 1 C-2.37325051 17.39080069 -10.25790499 29.84555717 -22 42 C-22.66773438 42.70511719 -23.33546875 43.41023438 -24.0234375 44.13671875 C-36.62088255 56.43855588 -53.38285102 65.12517094 -69 73 C-70.01191406 73.53625 -71.02382813 74.0725 -72.06640625 74.625 C-72.97261719 75.099375 -73.87882812 75.57375 -74.8125 76.0625 C-75.58207031 76.46597656 -76.35164063 76.86945313 -77.14453125 77.28515625 C-78.06298828 77.63900391 -78.06298828 77.63900391 -79 78 C-79.66 77.67 -80.32 77.34 -81 77 C-79.625 75.5 -79.625 75.5 -78 74 C-77.34 74 -76.68 74 -76 74 C-75.79375 73.443125 -75.5875 72.88625 -75.375 72.3125 C-73.44999226 69.07498698 -70.96149098 67.31768859 -68 65 C-68 65.66 -68 66.32 -68 67 C-65.64828869 66.40138258 -63.3140622 65.73075648 -61 65 C-60.67 64.34 -60.34 63.68 -60 63 C-57.35139573 62.40644386 -54.70802678 62.25790731 -52 62 C-51.67 61.01 -51.34 60.02 -51 59 C-49.515 58.505 -49.515 58.505 -48 58 C-47.67 57.01 -47.34 56.02 -47 55 C-44.525 54.505 -44.525 54.505 -42 54 C-41.67 52.68 -41.34 51.36 -41 50 C-40.195625 49.87625 -39.39125 49.7525 -38.5625 49.625 C-37.716875 49.41875 -36.87125 49.2125 -36 49 C-35.505 48.01 -35.505 48.01 -35 47 C-32.67843403 46.59270772 -30.3431213 46.25561323 -28 46 C-27.95875 45.443125 -27.9175 44.88625 -27.875 44.3125 C-26.76640345 41.38263769 -24.91589778 40.22991469 -22.48046875 38.3671875 C-20.7039895 36.89494548 -20.7039895 36.89494548 -19.4375 33.75 C-18 31 -18 31 -15.3125 30.125 C-14.549375 30.08375 -13.78625 30.0425 -13 30 C-12.896875 29.236875 -12.79375 28.47375 -12.6875 27.6875 C-12 25 -12 25 -10.5 23.5625 C-8.32590827 21.29782111 -8.33810251 19.04292263 -8 16 C-7.01 16 -6.02 16 -5 16 C-4.14256349 11.60563789 -3.91051442 7.47427924 -4 3 C-3.01 2.67 -2.02 2.34 -1 2 C-0.67 1.34 -0.34 0.68 0 0 Z " fill="#7D8995" transform="translate(452,177)"/>
<path d="M0 0 C-1.52206009 2.62901288 -2.84365964 4.84365964 -5 7 C-4.71016731 10.30683466 -4.71016731 10.30683466 -3 13 C-0.77854367 13.28387779 1.44317648 13.44765173 3.67578125 13.62109375 C6.12054437 14.01965177 7.85466592 14.78741987 10 16 C9.67 16.99 9.34 17.98 9 19 C4.21442607 21.27314762 -0.79173592 21.77332007 -6 21 C-9.8026029 18.9949912 -11.61790841 17.57313738 -14 14 C-14.6421226 9.52754143 -14.7420161 5.41657619 -12.625 1.375 C-8.54427097 -0.76252473 -4.51359846 -0.31009455 0 0 Z " fill="#B8C0CC" transform="translate(217,92)"/>
<path d="M0 0 C2.64 0 5.28 0 8 0 C8 1.32 8 2.64 8 4 C8.66 4 9.32 4 10 4 C10 3.34 10 2.68 10 2 C13.29329826 0.03338587 15.81296573 -0.27055005 19.625 -0.25 C20.58664063 -0.25515625 21.54828125 -0.2603125 22.5390625 -0.265625 C25 0 25 0 27 2 C26.01 2.66 25.02 3.32 24 4 C24.07726318 4.65266846 24.15452637 5.30533691 24.23413086 5.9777832 C24.99318306 13.12399741 24.96247089 20.0202055 24.5625 27.1875 C24.51029297 28.23486328 24.45808594 29.28222656 24.40429688 30.36132812 C24.27638246 32.90798782 24.14152987 35.45406703 24 38 C26.31 38 28.62 38 31 38 C31 29.75 31 21.5 31 13 C31.33 13 31.66 13 32 13 C32 21.58 32 30.16 32 39 C29.03 39 26.06 39 23 39 C22.505 23.655 22.505 23.655 22 8 C15.10716389 6.58351025 15.10716389 6.58351025 10 9 C8.5 7.8125 8.5 7.8125 7 6 C6.8125 3.3125 6.8125 3.3125 7 1 C4.69 1 2.38 1 0 1 C0 0.67 0 0.34 0 0 Z " fill="#A6B5C3" transform="translate(94,73)"/>
<path d="M0 0 C2.4375 1 2.4375 1 4 2 C4.1875 4.875 4.1875 4.875 4 8 C0.49710599 10.33526267 -1.65803007 10.44141315 -5.8125 10.875 C-11.954992 11.6681937 -15.59931671 12.59931671 -20 17 C-20.23075082 18.34747084 -20.41153063 19.70377565 -20.5625 21.0625 C-20.706875 22.361875 -20.85125 23.66125 -21 25 C-21.33 25 -21.66 25 -22 25 C-22.08153933 23.41753293 -22.13943557 21.83383727 -22.1875 20.25 C-22.22230469 19.36828125 -22.25710937 18.4865625 -22.29296875 17.578125 C-21.94015605 14.4733732 -21.1547558 13.23311056 -19 11 C-16.73319147 9.69913344 -14.45995213 8.92828382 -12 8 C-14.64 7.67 -17.28 7.34 -20 7 C-20 6.67 -20 6.34 -20 6 C-17.03 6 -14.06 6 -11 6 C-10.67 4.68 -10.34 3.36 -10 2 C-6.29873141 -0.46751239 -4.37776468 -0.30721156 0 0 Z " fill="#0E3E63" transform="translate(224,79)"/>
<path d="M0 0 C1.05960938 0.00676758 1.05960938 0.00676758 2.140625 0.01367188 C3.88545275 0.02546125 5.630237 0.04339676 7.375 0.0625 C8.5 3.8125 8.5 3.8125 7.375 6.0625 C4.9765625 6.40625 4.9765625 6.40625 2 6.5625 C-1.87729715 6.76710671 -3.31713984 6.85725989 -6.625 9.0625 C-6.955 10.0525 -7.285 11.0425 -7.625 12.0625 C-10.595 12.0625 -13.565 12.0625 -16.625 12.0625 C-16.48710108 9.09767326 -16.33555664 6.85015516 -14.29296875 4.5859375 C-9.31708791 0.44542352 -6.2746444 -0.07524943 0 0 Z " fill="#B9C1C8" transform="translate(220.625,72.9375)"/>
<path d="M0 0 C0.76774904 7.98458998 0.76774904 7.98458998 -1.9375 11.5625 C-5.93799618 13.44028392 -9.6454373 13.90516191 -14 13 C-15.78125 11.62890625 -15.78125 11.62890625 -17 10 C-16.86384401 7.27688022 -16.45668344 5.61652264 -14.828125 3.41796875 C-12.28470782 1.44519004 -10.04076662 1.25875867 -6.875 0.8125 C-5.79992187 0.65394531 -4.72484375 0.49539062 -3.6171875 0.33203125 C-1 0 -1 0 0 0 Z " fill="#0C4067" transform="translate(228,93)"/>
<path d="M0 0 C-2.68237771 1.38639747 -5.36514226 2.55600078 -8.1875 3.625 C-25.84093628 10.69669816 -42.90408549 19.55274831 -57.50390625 31.890625 C-59 33 -59 33 -61 33 C-60.67 32.01 -60.34 31.02 -60 30 C-59.34 29.67 -58.68 29.34 -58 29 C-57.7525 28.38125 -57.505 27.7625 -57.25 27.125 C-55.4797928 24.11564776 -53.1164794 23.42838639 -50 22 C-49.34 21.34 -48.68 20.68 -48 20 C-46.68 20 -45.36 20 -44 20 C-44 19.34 -44 18.68 -44 18 C-38.25 15 -38.25 15 -36 15 C-36 14.34 -36 13.68 -36 13 C-28.71428571 8.57142857 -28.71428571 8.57142857 -24 8 C-24 7.34 -24 6.68 -24 6 C-23.43410156 5.89042969 -22.86820312 5.78085938 -22.28515625 5.66796875 C-21.18494141 5.43013672 -21.18494141 5.43013672 -20.0625 5.1875 C-19.33160156 5.03667969 -18.60070312 4.88585937 -17.84765625 4.73046875 C-16.93306641 4.36888672 -16.93306641 4.36888672 -16 4 C-15.67 3.01 -15.34 2.02 -15 1 C-9.9752761 0.37470103 -5.07471573 -0.13012092 0 0 Z " fill="#8497A6" transform="translate(332,154)"/>
<path d="M0 0 C1.32 0.66 2.64 1.32 4 2 C3.690625 3.093125 3.38125 4.18625 3.0625 5.3125 C1.01522324 13.55968579 -1.30877827 26.03656798 1.82421875 34.12890625 C5.93820822 40.67575328 13.81137556 42.93518756 21.01171875 44.765625 C23.33680765 45.22997942 25.65486209 45.65238 28 46 C28 46.33 28 46.66 28 47 C17.19009512 47.70884622 7.23134573 44.17849918 -1 37 C-2.30673549 33.07979354 -2.19070617 29.33666724 -2.1875 25.25 C-2.18814453 24.40977295 -2.18878906 23.5695459 -2.18945312 22.70385742 C-2.1254515 15.00984332 -1.26976531 7.58458029 0 0 Z " fill="#CFE1EC" transform="translate(71,224)"/>
<path d="M0 0 C-21.51995157 8.30594622 -47.56575746 6.32359149 -70 3 C-70 2.67 -70 2.34 -70 2 C-68.68281982 2.00523682 -67.36563965 2.01047363 -66.00854492 2.01586914 C-61.12769244 2.03395149 -56.24684293 2.04544389 -51.3659668 2.05493164 C-49.25235496 2.05996444 -47.13874662 2.0667912 -45.02514648 2.07543945 C-41.98941182 2.08755104 -38.95372314 2.09323881 -35.91796875 2.09765625 C-34.97100632 2.10281754 -34.02404388 2.10797882 -33.04838562 2.11329651 C-32.16769913 2.11337204 -31.28701263 2.11344757 -30.37963867 2.11352539 C-29.60464523 2.115746 -28.82965179 2.11796661 -28.03117371 2.12025452 C-25.79559412 2.07609077 -25.79559412 2.07609077 -23 1 C-20.5444182 0.79677944 -18.08525692 0.6353383 -15.625 0.5 C-10.38237839 0.2250631 -10.38237839 0.2250631 -5.2109375 -0.59375 C-3 -1 -3 -1 0 0 Z " fill="#DBE9F4" transform="translate(354,261)"/>
<path d="M0 0 C0.66 0.33 1.32 0.66 2 1 C-2.50760522 17.89435779 -11.3424088 34.70990776 -26 45 C-26.495 43.515 -26.495 43.515 -27 42 C-26.071875 41.29875 -25.14375 40.5975 -24.1875 39.875 C-21.69154697 37.83391692 -20.89816541 36.78818405 -19.4375 33.75 C-18 31 -18 31 -15.3125 30.125 C-14.549375 30.08375 -13.78625 30.0425 -13 30 C-12.896875 29.236875 -12.79375 28.47375 -12.6875 27.6875 C-12 25 -12 25 -10.5 23.5625 C-8.32590827 21.29782111 -8.33810251 19.04292263 -8 16 C-7.01 16 -6.02 16 -5 16 C-4.14256349 11.60563789 -3.91051442 7.47427924 -4 3 C-3.01 2.67 -2.02 2.34 -1 2 C-0.67 1.34 -0.34 0.68 0 0 Z " fill="#8E9EAB" transform="translate(452,177)"/>
<path d="M0 0 C-0.33 0.99 -0.66 1.98 -1 3 C-3.1796875 4.0625 -3.1796875 4.0625 -5.875 5 C-9.32828266 6.20814554 -11.59776829 7.2000478 -14 10 C-13.67 10.99 -13.34 11.98 -13 13 C-19.27 13.99 -25.54 14.98 -32 16 C-31 13 -31 13 -28.47143555 11.46606445 C-27.370979 10.937146 -26.27052246 10.40822754 -25.13671875 9.86328125 C-24.54832718 9.57897751 -23.95993561 9.29467377 -23.35371399 9.00175476 C-22.10772349 8.40271631 -20.85928487 7.80874743 -19.60864258 7.21948242 C-17.69911703 6.31798446 -15.79955207 5.39770678 -13.90039062 4.47460938 C-12.68804873 3.89468482 -11.47517441 3.31587172 -10.26171875 2.73828125 C-9.15787842 2.21274658 -8.05403809 1.68721191 -6.91674805 1.14575195 C-4 0 -4 0 0 0 Z " fill="#EBF1F0" transform="translate(283,146)"/>
<path d="M0 0 C0.66 0 1.32 0 2 0 C6.81452086 9.13098783 9.54009973 16.90167345 9.375 27.3125 C9.36557373 28.23458252 9.35614746 29.15666504 9.34643555 30.10668945 C9.09963293 41.2875364 6.45828404 50.24844116 1 60 C0 57 0 57 0.70703125 55.2734375 C1.43523776 54.0228779 2.16438146 52.77286349 2.89453125 51.5234375 C5.83324924 44.81526853 6.33594186 37.86560187 6.25 30.625 C6.24323242 29.79572998 6.23646484 28.96645996 6.22949219 28.11206055 C6.06529285 18.34124513 4.6992464 10.61528506 0 2 C0 1.34 0 0.68 0 0 Z " fill="#E7EAED" transform="translate(389,172)"/>
<path d="M0 0 C2.60219619 0.0238937 5.20338374 0.02050221 7.80566406 0.01391602 C9.46973265 0.01948491 11.13379698 0.02658979 12.79785156 0.03540039 C13.57076538 0.03448898 14.3436792 0.03357758 15.14001465 0.03263855 C18.92594305 0.08263829 21.86785502 0.2106876 25.07910156 2.33618164 C23.56110962 2.31261597 23.56110962 2.31261597 22.01245117 2.28857422 C18.18245718 2.23341377 14.35249654 2.19952571 10.5222168 2.17138672 C8.87860165 2.15649281 7.23502482 2.13617075 5.59155273 2.10986328 C-12.24365344 1.83195448 -28.64460553 3.40491158 -42.92089844 15.33618164 C-42.60953703 12.43014187 -41.98709585 11.40037307 -39.85839844 9.33618164 C-27.47687749 0.90620993 -14.59079054 -0.14367604 0 0 Z " fill="#CFE1EE" transform="translate(130.9208984375,138.663818359375)"/>
<path d="M0 0 C2.18994248 3.28491373 2.35277339 4.83095639 2.625 8.6875 C2.69976562 9.68136719 2.77453125 10.67523438 2.8515625 11.69921875 C2.90054687 12.45847656 2.94953125 13.21773437 3 14 C2.34 13.67 1.68 13.34 1 13 C1 12.01 1 11.02 1 10 C-1.832168 9.66551741 -1.832168 9.66551741 -5 10 C-5.639375 10.639375 -6.27875 11.27875 -6.9375 11.9375 C-9.73991172 14.73991172 -12.15842235 14.50201771 -16 15 C-16.99 16.485 -16.99 16.485 -18 18 C-19.32 18 -20.64 18 -22 18 C-22 17.34 -22 16.68 -22 16 C-22.66 15.67 -23.32 15.34 -24 15 C-22.92621094 14.55269531 -21.85242188 14.10539063 -20.74609375 13.64453125 C-19.30970587 13.03430111 -17.87351859 12.42359866 -16.4375 11.8125 C-15.73302734 11.52052734 -15.02855469 11.22855469 -14.30273438 10.92773438 C-9.35715726 8.80820133 -5.19746624 6.38714457 -1 3 C-0.67 2.01 -0.34 1.02 0 0 Z " fill="#A5B0BF" transform="translate(393,182)"/>
<path d="M0 0 C0.66 0 1.32 0 2 0 C2 0.66 2 1.32 2 2 C2.66 2 3.32 2 4 2 C4 9.59 4 17.18 4 25 C5.32 25.66 6.64 26.32 8 27 C7.51171875 33.0546875 7.51171875 33.0546875 7 35 C2.8204355 37.78637633 0.85331323 36.79562512 -4 36 C-4 35.67 -4 35.34 -4 35 C-1.36 34.67 1.28 34.34 4 34 C4.495 31.03 4.495 31.03 5 28 C3.68 28 2.36 28 1 28 C0.67 18.76 0.34 9.52 0 0 Z " fill="#123F5D" transform="translate(236,78)"/>
<path d="M0 0 C2.73332093 0.48235075 5.24862665 1.08647883 7.875 2 C13.71049585 3.86735867 19.59085917 4.14512455 25.68359375 4.31640625 C26.38396255 4.33718735 27.08433136 4.35796844 27.80592346 4.37937927 C30.01636106 4.44412465 32.22690485 4.50340608 34.4375 4.5625 C35.94727607 4.60575681 37.45704188 4.64937323 38.96679688 4.69335938 C42.64442196 4.79972748 46.32216291 4.90120002 50 5 C50 5.33 50 5.66 50 6 C43.98264656 7.38643917 38.02114274 7.1841885 31.875 7.1875 C30.11542969 7.20586914 30.11542969 7.20586914 28.3203125 7.22460938 C18.02891061 7.24176171 8.72773798 6.81849199 0 1 C0 0.67 0 0.34 0 0 Z " fill="#ECEDEF" transform="translate(96,177)"/>
<path d="M0 0 C0.99 0 1.98 0 3 0 C4.69053423 4.45872018 5.31118092 8.32097677 5.484375 13.078125 C5.5084845 13.73077332 5.53259399 14.38342163 5.55743408 15.05584717 C5.60541018 16.42380112 5.64886812 17.7919204 5.68798828 19.16015625 C5.75025446 21.25857548 5.83326094 23.35550501 5.91796875 25.453125 C5.96218111 26.78641768 6.00519283 28.11975083 6.046875 29.453125 C6.08651367 30.66129883 6.12615234 31.86947266 6.16699219 33.11425781 C6 36 6 36 4 38 C1.8359375 38.1953125 1.8359375 38.1953125 -0.625 38.125 C-1.44226563 38.10695312 -2.25953125 38.08890625 -3.1015625 38.0703125 C-3.72804687 38.04710937 -4.35453125 38.02390625 -5 38 C-5 37.67 -5 37.34 -5 37 C-2.36 37 0.28 37 3 37 C2.9063058 32.37318242 2.80017713 27.7468783 2.68261719 23.12060547 C2.64438171 21.54744235 2.60951934 19.97419342 2.578125 18.40087891 C2.53235578 16.13673277 2.47438239 13.87317453 2.4140625 11.609375 C2.40251129 10.90818542 2.39096008 10.20699585 2.37905884 9.48455811 C2.26960094 5.8466503 1.98155656 3.1009622 0 0 Z " fill="#1C4562" transform="translate(146,75)"/>
<path d="M0 0 C0.66 0 1.32 0 2 0 C0.58986963 3.40789151 -0.93395263 4.9559406 -3.9921875 6.98046875 C-5.17361328 7.76647461 -5.17361328 7.76647461 -6.37890625 8.56835938 C-7.20261719 9.10267578 -8.02632813 9.63699219 -8.875 10.1875 C-9.69097656 10.73341797 -10.50695312 11.27933594 -11.34765625 11.84179688 C-17.99608618 16.21804724 -17.99608618 16.21804724 -22 17 C-20.8125 14.0625 -20.8125 14.0625 -19 11 C-16.3125 10.125 -16.3125 10.125 -14 10 C-13.67 8.68 -13.34 7.36 -13 6 C-12.195625 5.87625 -11.39125 5.7525 -10.5625 5.625 C-9.716875 5.41875 -8.87125 5.2125 -8 5 C-7.67 4.34 -7.34 3.68 -7 3 C-4.67843403 2.59270772 -2.3431213 2.25561323 0 2 C0 1.34 0 0.68 0 0 Z " fill="#8393A1" transform="translate(424,221)"/>
<path d="M0 0 C2.97 0 5.94 0 9 0 C9 2.64 9 5.28 9 8 C6.03 8 3.06 8 0 8 C0 5.36 0 2.72 0 0 Z " fill="#AABDCF" transform="translate(75,59)"/>
<path d="M0 0 C0.66 0.66 1.32 1.32 2 2 C1.8984375 4.3359375 1.8984375 4.3359375 1.375 7.375 C1.08109375 9.09396484 1.08109375 9.09396484 0.78125 10.84765625 C-0.71343155 18.91773125 -2.34886796 26.96075033 -4 35 C-6.3015838 30.99647875 -5.92064486 28.5195293 -5 24 C-4.67 23.34 -4.34 22.68 -4 22 C-3.77049681 19.795636 -3.58924067 17.58607827 -3.4375 15.375 C-3.31181641 13.59222656 -3.31181641 13.59222656 -3.18359375 11.7734375 C-3.12300781 10.85820312 -3.06242187 9.94296875 -3 9 C-2.34 9 -1.68 9 -1 9 C-0.67 6.03 -0.34 3.06 0 0 Z " fill="#194263" transform="translate(79,171)"/>
<path d="M0 0 C0.33 0.66 0.66 1.32 1 2 C1.66 2 2.32 2 3 2 C3 2.66 3 3.32 3 4 C7.29 4.99 11.58 5.98 16 7 C16 7.99 16 8.98 16 10 C3.73919841 9.36732518 3.73919841 9.36732518 -1 6 C-1.875 3.8125 -1.875 3.8125 -2 2 C-1.34 2 -0.68 2 0 2 C0 1.34 0 0.68 0 0 Z " fill="#BDBFC4" transform="translate(208,102)"/>
<path d="M0 0 C-0.33 0.66 -0.66 1.32 -1 2 C-1.99 2 -2.98 2 -4 2 C-4.33 2.99 -4.66 3.98 -5 5 C-5.66 5 -6.32 5 -7 5 C-7.33 6.98 -7.66 8.96 -8 11 C-8.33 11 -8.66 11 -9 11 C-9.33 18.26 -9.66 25.52 -10 33 C-10.33 33 -10.66 33 -11 33 C-11.11629782 28.60438961 -11.18728634 24.20917571 -11.25 19.8125 C-11.28351563 18.56662109 -11.31703125 17.32074219 -11.3515625 16.03710938 C-11.36445312 14.83505859 -11.37734375 13.63300781 -11.390625 12.39453125 C-11.41157227 11.28956299 -11.43251953 10.18459473 -11.45410156 9.04614258 C-10.8967209 5.30719716 -9.6060942 3.68333199 -7 1 C-4.53721199 -0.231394 -2.7204945 -0.07159196 0 0 Z " fill="#2B4F6C" transform="translate(113,79)"/>
<path d="M0 0 C0 0.66 0 1.32 0 2 C-9.43029689 6.13335297 -19.85291076 6.32909479 -30 6 C-27.19030342 3.19030342 -24.91766752 3.4423173 -21 3 C-15.58819154 2.35759108 -10.27622626 1.54406363 -4.953125 0.3671875 C-3 0 -3 0 0 0 Z " fill="#274F6D" transform="translate(358,261)"/>
<path d="M0 0 C0.66 0.33 1.32 0.66 2 1 C0.26375242 7.4188547 -1.85180745 13.13784836 -5 19 C-5.99 19 -6.98 19 -8 19 C-8 18.01 -8 17.02 -8 16 C-7.01 16 -6.02 16 -5 16 C-4.14256349 11.60563789 -3.91051442 7.47427924 -4 3 C-3.01 2.67 -2.02 2.34 -1 2 C-0.67 1.34 -0.34 0.68 0 0 Z " fill="#B0BAC9" transform="translate(452,177)"/>
<path d="M0 0 C0.33 0 0.66 0 1 0 C1 1.98 1 3.96 1 6 C1.66 6 2.32 6 3 6 C3 6.66 3 7.32 3 8 C2.38511719 8.18175781 1.77023438 8.36351563 1.13671875 8.55078125 C0.32847656 8.80214844 -0.47976562 9.05351563 -1.3125 9.3125 C-2.51326172 9.67794922 -2.51326172 9.67794922 -3.73828125 10.05078125 C-6.17959548 11.07537427 -7.40955103 11.89265512 -9 14 C-9.57017808 16.04100238 -9.57017808 16.04100238 -9.6875 18.1875 C-9.790625 19.445625 -9.89375 20.70375 -10 22 C-10.33 22 -10.66 22 -11 22 C-11.08153933 20.41753293 -11.13943557 18.83383727 -11.1875 17.25 C-11.22230469 16.36828125 -11.25710937 15.4865625 -11.29296875 14.578125 C-10.94015605 11.4733732 -10.1547558 10.23311056 -8 8 C-5.73319147 6.69913344 -3.45995213 5.92828382 -1 5 C-3.64 4.67 -6.28 4.34 -9 4 C-9 3.67 -9 3.34 -9 3 C-6.03 3 -3.06 3 0 3 C0 2.01 0 1.02 0 0 Z " fill="#214A66" transform="translate(213,82)"/>
<path d="M0 0 C0 0.33 0 0.66 0 1 C-1.98 1 -3.96 1 -6 1 C-6 1.99 -6 2.98 -6 4 C-6.99 4 -7.98 4 -9 4 C-9.4021875 5.175625 -9.4021875 5.175625 -9.8125 6.375 C-11 9 -11 9 -14 11 C-14.33 10.01 -14.66 9.02 -15 8 C-15.66 7.67 -16.32 7.34 -17 7 C-13.76153918 0.52307836 -6.48665441 -0.57916557 0 0 Z " fill="#B4BBC3" transform="translate(140,72)"/>
<path d="M0 0 C0 3.5672796 -1.08111051 4.76901532 -3.3828125 7.3828125 C-8.69228556 12.69228556 -15.22798905 17.69540356 -22.9375 18.1875 C-23.9584375 18.0946875 -23.9584375 18.0946875 -25 18 C-22.76982076 15.76982076 -21.32530524 15.32181495 -18.375 14.3125 C-12.86834288 12.1829414 -9.15198343 9.12436492 -5 5 C-4.47019531 4.484375 -3.94039063 3.96875 -3.39453125 3.4375 C-2.24783508 2.306864 -1.12104336 1.15607596 0 0 Z " fill="#E1EAF1" transform="translate(381,242)"/>
<path d="M0 0 C-1 3 -1 3 -3.109375 4.09765625 C-3.98078125 4.41605469 -4.8521875 4.73445312 -5.75 5.0625 C-6.61109375 5.38347656 -7.4721875 5.70445312 -8.359375 6.03515625 C-9.23078125 6.35355469 -10.1021875 6.67195312 -11 7 C-12.31291016 7.55107422 -12.31291016 7.55107422 -13.65234375 8.11328125 C-16.25144644 9.09497228 -18.24495658 9.15743105 -21 9 C-18.28740113 6.28740113 -15.05746516 4.97421672 -11.625 3.375 C-10.61566406 2.88773438 -10.61566406 2.88773438 -9.5859375 2.390625 C-6.08653714 0.75114215 -3.92920478 0 0 0 Z " fill="#D7E4EE" transform="translate(283,146)"/>
<path d="M0 0 C2.64 0 5.28 0 8 0 C8 1.32 8 2.64 8 4 C8.66 4 9.32 4 10 4 C10 3.34 10 2.68 10 2 C11.98 1.34 13.96 0.68 16 0 C14.52307692 6.64615385 14.52307692 6.64615385 11.875 8.4375 C11.25625 8.623125 10.6375 8.80875 10 9 C8.5 7.8125 8.5 7.8125 7 6 C6.8125 3.3125 6.8125 3.3125 7 1 C4.69 1 2.38 1 0 1 C0 0.67 0 0.34 0 0 Z " fill="#9EAFBD" transform="translate(94,73)"/>
<path d="M0 0 C0 0.99 0 1.98 0 3 C-0.66 3 -1.32 3 -2 3 C-2.33 3.99 -2.66 4.98 -3 6 C-3.66 6 -4.32 6 -5 6 C-5.33 6.99 -5.66 7.98 -6 9 C-7.9812585 9.72045764 -9.98504093 10.38001259 -12 11 C-13.67334039 11.98879205 -15.34151823 12.98648336 -17 14 C-17.66 14 -18.32 14 -19 14 C-19 13.34 -19 12.68 -19 12 C-17.25585938 10.67138672 -17.25585938 10.67138672 -14.84375 9.1796875 C-13.98652344 8.64472656 -13.12929688 8.10976562 -12.24609375 7.55859375 C-11.33988281 7.00300781 -10.43367188 6.44742188 -9.5 5.875 C-8.59378906 5.31167969 -7.68757813 4.74835938 -6.75390625 4.16796875 C-4.50648709 2.77220317 -2.25513194 1.38325702 0 0 Z " fill="#0F3E5C" transform="translate(301,167)"/>
<path d="M0 0 C0.33 0 0.66 0 1 0 C2.5016057 7.09849968 1.47726876 13.1793261 -1 20 C-1.66 20.33 -2.32 20.66 -3 21 C-3.37369729 13.52605426 -2.04061541 7.17859349 0 0 Z " fill="#E0EDF5" transform="translate(79,184)"/>
<path d="M0 0 C-3.74903289 4.31706818 -6.49390805 5.67094332 -12 7 C-14.37300489 7.9251481 -16.6753355 8.95627308 -19 10 C-19.33 9.01 -19.66 8.02 -20 7 C-17.60945893 5.8212678 -15.21354785 4.65697003 -12.8125 3.5 C-12.13896484 3.16613281 -11.46542969 2.83226563 -10.77148438 2.48828125 C-7.03696471 0.70299868 -4.24205451 -0.46127195 0 0 Z " fill="#CFE0EA" transform="translate(333,123)"/>
<path d="M0 0 C1.32 0.33 2.64 0.66 4 1 C4 1.66 4 2.32 4 3 C1.92613995 4.61234483 -0.13739861 6.09933403 -2.3125 7.5625 C-3.20485352 8.1802832 -3.20485352 8.1802832 -4.11523438 8.81054688 C-6.72285794 10.59072341 -8.98996145 11.99665382 -12 13 C-11.67 12.01 -11.34 11.02 -11 10 C-10.34 9.67 -9.68 9.34 -9 9 C-8.7525 8.38125 -8.505 7.7625 -8.25 7.125 C-6.48677563 4.12751857 -4.08943172 3.44611697 -1 2 C-0.67 1.34 -0.34 0.68 0 0 Z " fill="#A1B1BF" transform="translate(283,174)"/>
<path d="M0 0 C11.55 0.33 23.1 0.66 35 1 C35 1.33 35 1.66 35 2 C23.12 2.33 11.24 2.66 -1 3 C-0.67 2.01 -0.34 1.02 0 0 Z " fill="#032F54" transform="translate(111,136)"/>
<path d="M0 0 C1.51400391 0.01740234 1.51400391 0.01740234 3.05859375 0.03515625 C4.07050781 0.04417969 5.08242187 0.05320313 6.125 0.0625 C7.29869141 0.07990234 7.29869141 0.07990234 8.49609375 0.09765625 C9.78012458 4.59176415 9.4013451 5.33452787 7.49609375 10.09765625 C3.86609375 10.09765625 0.23609375 10.09765625 -3.50390625 10.09765625 C-3.6015625 3.1640625 -3.6015625 3.1640625 -3.50390625 1.09765625 C-2.50390625 0.09765625 -2.50390625 0.09765625 0 0 Z M-2.50390625 1.09765625 C-2.50390625 3.73765625 -2.50390625 6.37765625 -2.50390625 9.09765625 C0.46609375 9.09765625 3.43609375 9.09765625 6.49609375 9.09765625 C6.49609375 6.45765625 6.49609375 3.81765625 6.49609375 1.09765625 C3.52609375 1.09765625 0.55609375 1.09765625 -2.50390625 1.09765625 Z " fill="#1F4565" transform="translate(77.50390625,57.90234375)"/>
<path d="M0 0 C0.93385816 2.80157448 1.16354595 4.65447803 1.1875 7.5625 C1.20167969 8.34753906 1.21585937 9.13257813 1.23046875 9.94140625 C1 12 1 12 -1 14 C-1.64767793 16.57061311 -1.64767793 16.57061311 -2 19 C-2.66 19 -3.32 19 -4 19 C-4.36182611 12.48713003 -3.29943477 7.11196911 -1 1 C-0.67 0.67 -0.34 0.34 0 0 Z " fill="#DEE8F0" transform="translate(86,155)"/>
<path d="M0 0 C2.18994248 3.28491373 2.35277339 4.83095639 2.625 8.6875 C2.69976562 9.68136719 2.77453125 10.67523438 2.8515625 11.69921875 C2.90054687 12.45847656 2.94953125 13.21773437 3 14 C2.34 13.67 1.68 13.34 1 13 C1 12.01 1 11.02 1 10 C-0.65 10 -2.3 10 -4 10 C-4.1875 7.625 -4.1875 7.625 -4 5 C-3.01 4.34 -2.02 3.68 -1 3 C-0.67 2.01 -0.34 1.02 0 0 Z " fill="#A4A9B2" transform="translate(393,182)"/>
<path d="M0 0 C8.52080037 0.39728885 16.72049367 0.78227509 25 3 C25 3.33 25 3.66 25 4 C17.2199093 4.27567251 9.5716943 3.96888359 2 2 C1.34 1.34 0.68 0.68 0 0 Z " fill="#D3E3EE" transform="translate(240,257)"/>
<path d="M0 0 C4.06243957 -0.05819473 8.12477146 -0.09366215 12.1875 -0.125 C13.33798828 -0.14175781 14.48847656 -0.15851563 15.67382812 -0.17578125 C16.78564453 -0.18222656 17.89746094 -0.18867187 19.04296875 -0.1953125 C20.06414795 -0.20578613 21.08532715 -0.21625977 22.13745117 -0.22705078 C25.12612167 0.01000368 27.29423369 0.74382898 30 2 C30 2.66 30 3.32 30 4 C29.42636719 3.86722656 28.85273438 3.73445313 28.26171875 3.59765625 C18.91163481 1.65386035 9.51423778 1.37465392 0 1 C0 0.67 0 0.34 0 0 Z " fill="#3A6280" transform="translate(390,99)"/>
<path d="M0 0 C1.9375 2 1.9375 2 3 4 C2.01 4.33 1.02 4.66 0 5 C0 4.01 0 3.02 0 2 C-4.09305456 3.65296434 -7.58983503 5.13546142 -11 8 C-10.64987213 5.40905378 -10.26229035 3.4225789 -8.875 1.1875 C-5.85776705 -0.7234142 -3.46733097 -0.43341637 0 0 Z " fill="#2C4E6B" transform="translate(137,79)"/>
<path d="M0 0 C-2.94408359 1.51974685 -5.9250876 2.82972262 -9 4.0625 C-9.845625 4.40410156 -10.69125 4.74570313 -11.5625 5.09765625 C-13.70030197 5.88905409 -15.77860294 6.50121409 -18 7 C-18 6.34 -18 5.68 -18 5 C-17.34 4.67 -16.68 4.34 -16 4 C-15.67 3.01 -15.34 2.02 -15 1 C-9.9752761 0.37470103 -5.07471573 -0.13012092 0 0 Z " fill="#778694" transform="translate(332,154)"/>
<path d="M0 0 C0.556875 0.28875 1.11375 0.5775 1.6875 0.875 C6.88999534 3.40594368 11.26482017 4.41676137 17 5 C16.67 5.66 16.34 6.32 16 7 C11.17143834 7.38628493 7.88514023 7.45837619 3.5 5.1875 C1 3 1 3 0 0 Z " fill="#A6BBCD" transform="translate(204,106)"/>
<path d="M0 0 C-0.99 1.485 -0.99 1.485 -2 3 C-3.66666667 3 -5.33333333 3 -7 3 C-8.69719127 3.94726954 -10.36935236 4.94228261 -12 6 C-12.66 6 -13.32 6 -14 6 C-12.84472689 2.53418066 -12.36913774 2.32129495 -9.25 0.75 C-5.80837551 -0.88415264 -3.69524975 -1.38571866 0 0 Z " fill="#DBE6EB" transform="translate(365,109)"/>
<path d="M0 0 C-3.96223887 3.96223887 -10.48252898 5.52304769 -16 6 C-16.66 5.34 -17.32 4.68 -18 4 C-6.66287016 -0.59225513 -6.66287016 -0.59225513 0 0 Z " fill="#1C4569" transform="translate(164,260)"/>
<path d="M0 0 C0.99 0.33 1.98 0.66 3 1 C3 1.66 3 2.32 3 3 C3.99 3 4.98 3 6 3 C7.95021536 9.46008837 8.22262303 15.2718373 8 22 C7.67 22 7.34 22 7 22 C6.85304687 20.69675781 6.85304687 20.69675781 6.703125 19.3671875 C5.85399734 12.82304848 5.19336883 8.14025857 1 3 C0.67 2.01 0.34 1.02 0 0 Z " fill="#183C5B" transform="translate(190,74)"/>
<path d="M0 0 C4.875 4.75 4.875 4.75 6 7 C7.64363134 7.72159424 9.31050386 8.39351421 11 9 C10.67 9.66 10.34 10.32 10 11 C5.89041233 9.54955729 2.56741255 7.48889248 -1 5 C-0.67 3.35 -0.34 1.7 0 0 Z " fill="#DCEBF1" transform="translate(71,256)"/>
<path d="M0 0 C0 0.66 0 1.32 0 2 C-6.1105424 2.11269443 -11.95170514 1.89604368 -18 1 C-18 0.67 -18 0.34 -18 0 C-11.96496237 -1.50875941 -6.10261631 -0.64186094 0 0 Z " fill="#BCD0DF" transform="translate(284,262)"/>
<path d="M0 0 C7.30696249 0.45965708 13.99757448 1.88329723 21 4 C21 4.33 21 4.66 21 5 C13.54508438 4.63419196 6.95068039 3.79080349 0 1 C0 0.67 0 0.34 0 0 Z " fill="#113A5D" transform="translate(208,252)"/>
<path d="M0 0 C0.804375 0.78375 1.60875 1.5675 2.4375 2.375 C6.21328801 5.57129057 10.20237016 6.28568622 15 7 C15 7.33 15 7.66 15 8 C10.71 8 6.42 8 2 8 C0 4 0 4 0 0 Z " fill="#144061" transform="translate(203,106)"/>
<path d="M0 0 C-2.86338843 2.31987488 -5.56787067 3.79609627 -9 5.125 C-9.845625 5.45757812 -10.69125 5.79015625 -11.5625 6.1328125 C-13.6984628 6.89272234 -15.79118062 7.49892523 -18 8 C-18 7.34 -18 6.68 -18 6 C-17.39671875 5.73445313 -16.7934375 5.46890625 -16.171875 5.1953125 C-15.37265625 4.84210938 -14.5734375 4.48890625 -13.75 4.125 C-12.96109375 3.77695313 -12.1721875 3.42890625 -11.359375 3.0703125 C-9.84373792 2.38275528 -8.34588722 1.653705 -6.875 0.875 C-4.49603029 -0.23518586 -2.59269691 -0.14403872 0 0 Z " fill="#18425F" transform="translate(372,103)"/>
<path d="M0 0 C-3.05684176 1.74777758 -5.50048148 2.3117723 -9 2.5625 C-12.11720592 2.79534008 -14.9866271 3.15597657 -18 4 C-18 3.01 -18 2.02 -18 1 C-12.03325384 -0.32594359 -6.07416385 -0.0884587 0 0 Z " fill="#D9E8F1" transform="translate(404,100)"/>
<path d="M0 0 C6.625 -0.25 6.625 -0.25 10 2 C10 2.99 10 3.98 10 5 C6.37 4.34 2.74 3.68 -1 3 C-0.67 2.01 -0.34 1.02 0 0 Z " fill="#ABBFCD" transform="translate(206,248)"/>
<path d="M0 0 C0.99 0 1.98 0 3 0 C3.5625 1.9375 3.5625 1.9375 4 4 C3 5 3 5 -0.25 5.125 C-3.33603789 5.02213207 -6.01424114 4.72382033 -9 4 C-9 3.67 -9 3.34 -9 3 C-6.03 2.34 -3.06 1.68 0 1 C0 0.67 0 0.34 0 0 Z " fill="#DDDFE1" transform="translate(183,173)"/>
<path d="M0 0 C1.32 0.66 2.64 1.32 4 2 C3.01 2.495 3.01 2.495 2 3 C1.30906104 5.57951874 1.30906104 5.57951874 0.875 8.5625 C0.70742187 9.57441406 0.53984375 10.58632812 0.3671875 11.62890625 C0.24601563 12.41136719 0.12484375 13.19382812 0 14 C-0.66 13.67 -1.32 13.34 -2 13 C-1.67 11.02 -1.34 9.04 -1 7 C-2.32 6.34 -3.64 5.68 -5 5 C-3.68 5 -2.36 5 -1 5 C-0.67 3.35 -0.34 1.7 0 0 Z " fill="#A1AFBF" transform="translate(229,74)"/>
<path d="M0 0 C0.33 0.99 0.66 1.98 1 3 C-0.40372802 4.20276695 -1.82352097 5.38680519 -3.25 6.5625 C-4.43335938 7.55443359 -4.43335938 7.55443359 -5.640625 8.56640625 C-8 10 -8 10 -10.296875 9.71484375 C-10.85890625 9.47894531 -11.4209375 9.24304688 -12 9 C-11.21753906 8.43410156 -10.43507813 7.86820313 -9.62890625 7.28515625 C-8.61699219 6.55167969 -7.60507812 5.81820312 -6.5625 5.0625 C-5.55316406 4.33160156 -4.54382813 3.60070312 -3.50390625 2.84765625 C-1.17707392 1.22678115 -1.17707392 1.22678115 0 0 Z " fill="#174265" transform="translate(427,221)"/>
<path d="M0 0 C0.33 0 0.66 0 1 0 C1.2493357 1.60115576 1.47378648 3.20620159 1.6875 4.8125 C1.81511719 5.70582031 1.94273437 6.59914063 2.07421875 7.51953125 C2 10 2 10 0.65625 11.78125 C-1.21326678 13.15693216 -2.72740492 13.60817326 -5 14 C-5 13.01 -5 12.02 -5 11 C-4.360625 10.608125 -3.72125 10.21625 -3.0625 9.8125 C0.14292723 6.9956094 -0.27325268 4.16710334 0 0 Z " fill="#A8B8C8" transform="translate(228,94)"/>
<path d="M0 0 C0.66 0 1.32 0 2 0 C2.50423019 5.29441695 1.18923033 7.81413519 -2 12 C-2.66 11.67 -3.32 11.34 -4 11 C-4 10.01 -4 9.02 -4 8 C-3.01 8 -2.02 8 -1 8 C-0.67 5.36 -0.34 2.72 0 0 Z " fill="#A8B1BE" transform="translate(448,185)"/>
<path d="M0 0 C0.66 0 1.32 0 2 0 C1.25 7.75 1.25 7.75 -1 10 C-2 9 -2 9 -2.0625 5.4375 C-2.041875 4.303125 -2.02125 3.16875 -2 2 C-1.34 2 -0.68 2 0 2 C0 1.34 0 0.68 0 0 Z " fill="#BECCD9" transform="translate(454,168)"/>
<path d="M0 0 C0.33 0.99 0.66 1.98 1 3 C2.64034193 3.72904086 4.31301918 4.38655243 6 5 C7.6829392 5.97236487 9.35443434 6.96564444 11 8 C10.34 8.66 9.68 9.32 9 10 C7.7260098 9.23439544 6.45593488 8.46227374 5.1875 7.6875 C4.12595703 7.04361328 4.12595703 7.04361328 3.04296875 6.38671875 C1.11039769 5.07493533 -0.41410612 3.70596155 -2 2 C-1.34 2 -0.68 2 0 2 C0 1.34 0 0.68 0 0 Z " fill="#D4E6ED" transform="translate(372,156)"/>
<path d="M0 0 C1.32 0.33 2.64 0.66 4 1 C2.21118264 2.00508801 0.41885304 3.00392736 -1.375 4 C-2.37273437 4.556875 -3.37046875 5.11375 -4.3984375 5.6875 C-7 7 -7 7 -9 7 C-9 6.34 -9 5.68 -9 5 C-8.34 5 -7.68 5 -7 5 C-6.67 4.01 -6.34 3.02 -6 2 C-4.02 2 -2.04 2 0 2 C0 1.34 0 0.68 0 0 Z " fill="#1A4361" transform="translate(274,146)"/>
<path d="M0 0 C0.33 0.66 0.66 1.32 1 2 C-0.07050218 3.48847916 -1.15692244 4.9655195 -2.25 6.4375 C-3.15492188 7.67306641 -3.15492188 7.67306641 -4.078125 8.93359375 C-6.10483324 11.11271704 -7.0991395 11.64701919 -10 12 C-9.61328125 11.55269531 -9.2265625 11.10539063 -8.828125 10.64453125 C-5.81609925 7.1478974 -2.85678969 3.62592537 0 0 Z " fill="#214C6C" transform="translate(438,209)"/>
<path d="M0 0 C0.33 0 0.66 0 1 0 C1.19294408 4.82360189 0.75747614 8.49646738 -1 13 C-1.66 13 -2.32 13 -3 13 C-2.69128878 11.20767663 -2.37790936 9.41615679 -2.0625 7.625 C-1.88847656 6.62726563 -1.71445312 5.62953125 -1.53515625 4.6015625 C-1 2 -1 2 0 0 Z " fill="#184663" transform="translate(456,170)"/>
<path d="M0 0 C2.72869407 0.03287583 5.2966618 0.56397771 8 1 C8 1.99 8 2.98 8 4 C8.99 4.33 9.98 4.66 11 5 C9.02 5 7.04 5 5 5 C5 4.34 5 3.68 5 3 C2.69 2.67 0.38 2.34 -2 2 C-1.34 1.34 -0.68 0.68 0 0 Z " fill="#A1B2C0" transform="translate(211,90)"/>
<path d="M0 0 C4.67461851 -0.32613618 7.16674383 0.29417212 11 3 C6.99799622 4.60080151 3.95443764 3.29279692 0 2 C0 1.34 0 0.68 0 0 Z " fill="#1F4866" transform="translate(174,79)"/>
<path d="M0 0 C2.64 0 5.28 0 8 0 C8 1.98 8 3.96 8 6 C5.36 4.68 2.72 3.36 0 2 C0 1.34 0 0.68 0 0 Z " fill="#163F60" transform="translate(228,72)"/>
<path d="M0 0 C2.3125 0.1875 2.3125 0.1875 5 1 C8 5.03448276 8 5.03448276 8 8 C8.66 8.33 9.32 8.66 10 9 C7 9 7 9 5.17578125 7.28515625 C4.56089844 6.55167969 3.94601562 5.81820312 3.3125 5.0625 C2.68988281 4.33160156 2.06726563 3.60070312 1.42578125 2.84765625 C0 1 0 1 0 0 Z " fill="#1B4460" transform="translate(438,114)"/>
<path d="M0 0 C2.0625 0.4375 2.0625 0.4375 4 1 C3.360625 1.721875 2.72125 2.44375 2.0625 3.1875 C0.01326465 5.98191184 -0.61332946 7.61663274 -1 11 C-1.66 11 -2.32 11 -3 11 C-2.69217504 9.35328588 -2.37860766 7.70764424 -2.0625 6.0625 C-1.88847656 5.14597656 -1.71445313 4.22945313 -1.53515625 3.28515625 C-1 1 -1 1 0 0 Z " fill="#113C5E" transform="translate(205,75)"/>
<path d="M0 0 C1.32 0.33 2.64 0.66 4 1 C3.34 1.66 2.68 2.32 2 3 C2.33 3.99 2.66 4.98 3 6 C0.69 6 -1.62 6 -4 6 C-3.67 5.01 -3.34 4.02 -3 3 C-2.01 3 -1.02 3 0 3 C0 2.01 0 1.02 0 0 Z " fill="#BDC6CE" transform="translate(134,73)"/>
<path d="M0 0 C-4.95 2.97 -4.95 2.97 -10 6 C-10 5.01 -10 4.02 -10 3 C-8.68 2.67 -7.36 2.34 -6 2 C-6 1.34 -6 0.68 -6 0 C-3 -1 -3 -1 0 0 Z " fill="#194163" transform="translate(389,188)"/>
<path d="M0 0 C0.33 0 0.66 0 1 0 C1.08096803 1.45742463 1.13917774 2.91612807 1.1875 4.375 C1.22230469 5.18710938 1.25710937 5.99921875 1.29296875 6.8359375 C1.19628906 7.55007812 1.09960938 8.26421875 1 9 C0.01 9.66 -0.98 10.32 -2 11 C-2.33 9.68 -2.66 8.36 -3 7 C-2.34 7 -1.68 7 -1 7 C-1.309375 5.824375 -1.309375 5.824375 -1.625 4.625 C-1.74875 3.75875 -1.8725 2.8925 -2 2 C-1.34 1.34 -0.68 0.68 0 0 Z " fill="#113B5C" transform="translate(227,93)"/>
<path d="M0 0 C0.66 0.33 1.32 0.66 2 1 C2.07654536 5.51617599 2.10228696 9.59085217 1 14 C0.67 14 0.34 14 0 14 C-0.19532961 12.2300132 -0.38098882 10.45895721 -0.5625 8.6875 C-0.66691406 7.70136719 -0.77132812 6.71523437 -0.87890625 5.69921875 C-1 3 -1 3 0 0 Z " fill="#224C6A" transform="translate(69,225)"/>
<path d="M0 0 C2.25 0.25 2.25 0.25 4 1 C4 1.66 4 2.32 4 3 C1.69 4.32 -0.62 5.64 -3 7 C-3.33 6.01 -3.66 5.02 -4 4 C-2.25 1.9375 -2.25 1.9375 0 0 Z " fill="#96A8B4" transform="translate(283,174)"/>
<path d="M0 0 C-0.33 0.99 -0.66 1.98 -1 3 C-4.5625 4.6875 -4.5625 4.6875 -8 6 C-8 5.01 -8 4.02 -8 3 C-7.34 3 -6.68 3 -6 3 C-6 2.34 -6 1.68 -6 1 C-3.92446352 0.4465236 -2.15634036 0 0 0 Z " fill="#838D9E" transform="translate(314,159)"/>
<path d="M0 0 C0.33 0.99 0.66 1.98 1 3 C0.01 3.33 -0.98 3.66 -2 4 C-1.67 4.99 -1.34 5.98 -1 7 C-2.65 6.67 -4.3 6.34 -6 6 C-4 4 -2 2 0 0 Z " fill="#1D425C" transform="translate(278,182)"/>
<path d="M0 0 C-2.25 2.5 -2.25 2.5 -5 5 C-6.32 5 -7.64 5 -9 5 C-9 4.01 -9 3.02 -9 2 C-5.86501708 0.14223235 -3.62528568 -0.20140476 0 0 Z " fill="#DDEAEE" transform="translate(333,123)"/>
<path d="M0 0 C5.94 0.99 5.94 0.99 12 2 C7.62241031 4.18879485 6.5551674 4.08927916 2 3 C1.34 2.67 0.68 2.34 0 2 C0 1.34 0 0.68 0 0 Z " fill="#274C6B" transform="translate(84,269)"/>
<path d="M0 0 C3.3 0.99 6.6 1.98 10 3 C9.01 3.66 8.02 4.32 7 5 C3.3125 4.125 3.3125 4.125 0 3 C0 2.01 0 1.02 0 0 Z " fill="#B5C4D0" transform="translate(279,191)"/>
<path d="M0 0 C1.5 1.375 1.5 1.375 3 3 C3 3.66 3 4.32 3 5 C1.35 5 -0.3 5 -2 5 C-2.33 3.68 -2.66 2.36 -3 1 C-2.01 0.67 -1.02 0.34 0 0 Z " fill="#F1ECF0" transform="translate(267,154)"/>
<path d="M0 0 C4.455 0.99 4.455 0.99 9 2 C9 2.33 9 2.66 9 3 C5.7 3 2.4 3 -1 3 C-0.67 2.01 -0.34 1.02 0 0 Z " fill="#0B365D" transform="translate(111,136)"/>
<path d="M0 0 C0.99 0.33 1.98 0.66 3 1 C2.67 1.66 2.34 2.32 2 3 C1.76970044 5.37123246 1.58880058 7.74741943 1.4375 10.125 C1.35371094 11.40632813 1.26992187 12.68765625 1.18359375 14.0078125 C1.12300781 14.99523437 1.06242188 15.98265625 1 17 C0.67 17 0.34 17 0 17 C0 11.39 0 5.78 0 0 Z " fill="#163C59" transform="translate(168,109)"/>
<path d="M0 0 C2.64 0.33 5.28 0.66 8 1 C4.78817851 2.90608098 2.46117397 3.22266247 -1.25 3.125 C-2.14203125 3.10695313 -3.0340625 3.08890625 -3.953125 3.0703125 C-4.96632813 3.03550781 -4.96632813 3.03550781 -6 3 C-6 2.67 -6 2.34 -6 2 C-4.02 2 -2.04 2 0 2 C0 1.34 0 0.68 0 0 Z " fill="#D1E2F0" transform="translate(118,268)"/>
<path d="M0 0 C-0.33 0.99 -0.66 1.98 -1 3 C-4.3 3 -7.6 3 -11 3 C-6.9903514 0.32690093 -4.82843714 0 0 0 Z " fill="#91A7BB" transform="translate(369,198)"/>
<path d="M0 0 C-1 3 -1 3 -3.3125 4.25 C-6.16597407 5.04631835 -7.24802325 4.8214856 -10 4 C-8.71086513 3.32845067 -7.41859796 2.66291141 -6.125 2 C-5.40570313 1.62875 -4.68640625 1.2575 -3.9453125 0.875 C-2 0 -2 0 0 0 Z " fill="#CCE2EB" transform="translate(262,155)"/>
<path d="M0 0 C-3.00617269 3.00617269 -5.82381598 2.59585316 -10 3 C-10 2.34 -10 1.68 -10 1 C-6.52674819 -0.1577506 -3.63932552 -0.06866652 0 0 Z " fill="#CDDCEB" transform="translate(383,102)"/>
<path d="M0 0 C0 0.33 0 0.66 0 1 C-1.98 1 -3.96 1 -6 1 C-6 1.66 -6 2.32 -6 3 C-8.31 3.33 -10.62 3.66 -13 4 C-8.74504132 -0.44836589 -5.9812469 -0.09647172 0 0 Z " fill="#829AAE" transform="translate(140,72)"/>
<path d="M0 0 C0.33 0.66 0.66 1.32 1 2 C1.66 2.33 2.32 2.66 3 3 C-2.2734375 6.22265625 -2.2734375 6.22265625 -4 7 C-4.66 6.67 -5.32 6.34 -6 6 C-4.625 4.5 -4.625 4.5 -3 3 C-2.34 3 -1.68 3 -1 3 C-0.67 2.01 -0.34 1.02 0 0 Z " fill="#8394A3" transform="translate(377,248)"/>
<path d="M0 0 C-0.33 1.32 -0.66 2.64 -1 4 C-2.32 4 -3.64 4 -5 4 C-5 3.34 -5 2.68 -5 2 C-5.66 1.67 -6.32 1.34 -7 1 C-4 0 -4 0 0 0 Z " fill="#ADB9C6" transform="translate(376,196)"/>
<path d="M0 0 C0.66 0 1.32 0 2 0 C4.5393228 3.41831915 5.3636198 5.75776898 5 10 C2.35534962 6.8745041 1.15585285 3.91211733 0 0 Z " fill="#D1E4F1" transform="translate(389,172)"/>
<path d="M0 0 C0.66 0.66 1.32 1.32 2 2 C1.625 5.625 1.625 5.625 1 9 C0.34 8.67 -0.32 8.34 -1 8 C-1.125 2.25 -1.125 2.25 0 0 Z " fill="#E1F0F7" transform="translate(71,232)"/>
<path d="M0 0 C0 0.99 0 1.98 0 3 C-1.98 3.99 -3.96 4.98 -6 6 C-6.33 5.34 -6.66 4.68 -7 4 C-6.34 4 -5.68 4 -5 4 C-5 3.34 -5 2.68 -5 2 C-2 0 -2 0 0 0 Z " fill="#8BA1AD" transform="translate(293,170)"/>
<path d="M0 0 C-3.50538557 1.96301592 -7.13351728 2.95902388 -11 4 C-11.33 3.34 -11.66 2.68 -12 2 C-7.82262526 0.40861915 -4.46839215 -0.21278058 0 0 Z " fill="#6D869D" transform="translate(332,154)"/>
<path d="M0 0 C0.66 0 1.32 0 2 0 C2.99 2.97 3.98 5.94 5 9 C1.96938234 6.97958823 1.27760233 6.24314437 0 3 C0 2.01 0 1.02 0 0 Z " fill="#B6CADC" transform="translate(450,132)"/>
<path d="M0 0 C-3.96 1.98 -3.96 1.98 -8 4 C-8.99 3.34 -9.98 2.68 -11 2 C-4.5 -1.125 -4.5 -1.125 0 0 Z " fill="#BECEDB" transform="translate(373,105)"/>
<path d="M0 0 C0.33 0 0.66 0 1 0 C0.67 2.97 0.34 5.94 0 9 C-1.32 9.33 -2.64 9.66 -4 10 C-2.68 6.7 -1.36 3.4 0 0 Z " fill="#234962" transform="translate(196,98)"/>
<path d="M0 0 C0.33 0 0.66 0 1 0 C1 2.64 1 5.28 1 8 C0.01 7.34 -0.98 6.68 -2 6 C-1.125 1.125 -1.125 1.125 0 0 Z " fill="#244360" transform="translate(213,97)"/>
<path d="M0 0 C2.31 0 4.62 0 7 0 C7 0.99 7 1.98 7 3 C7.66 3.33 8.32 3.66 9 4 C7.35 4 5.7 4 4 4 C4 3.01 4 2.02 4 1 C2.68 0.67 1.36 0.34 0 0 Z " fill="#B8C9D2" transform="translate(215,90)"/>
<path d="M0 0 C-2.31 1.65 -4.62 3.3 -7 5 C-6.67 3.35 -6.34 1.7 -6 0 C-3 -1 -3 -1 0 0 Z " fill="#1D4464" transform="translate(133,82)"/>
<path d="M0 0 C1.65 0 3.3 0 5 0 C2.38485683 2.12038635 -0.19637616 4.13091744 -3 6 C-3.33 5.01 -3.66 4.02 -4 3 C-3.01 2.67 -2.02 2.34 -1 2 C-0.67 1.34 -0.34 0.68 0 0 Z " fill="#123859" transform="translate(127,72)"/>
<path d="M0 0 C0 1.65 0 3.3 0 5 C-1.32 5 -2.64 5 -4 5 C-4 3.68 -4 2.36 -4 1 C-2 0 -2 0 0 0 Z " fill="#BEC3C6" transform="translate(82,60)"/>
<path d="M0 0 C1.65 0.33 3.3 0.66 5 1 C4.67 1.66 4.34 2.32 4 3 C1.6859378 3.73075648 -0.64828869 4.40138258 -3 5 C-3.33 4.34 -3.66 3.68 -4 3 C-2.68 3 -1.36 3 0 3 C0 2.01 0 1.02 0 0 Z " fill="#CDD8E8" transform="translate(156,257)"/>
<path d="M0 0 C0 0.66 0 1.32 0 2 C-2.31 2.33 -4.62 2.66 -7 3 C-7 2.01 -7 1.02 -7 0 C-3.86650268 -1.04449911 -3.01031744 -0.93423645 0 0 Z " fill="#18425E" transform="translate(192,247)"/>
<path d="M0 0 C4.455 0.99 4.455 0.99 9 2 C9 2.33 9 2.66 9 3 C5.7 3 2.4 3 -1 3 C-0.67 2.01 -0.34 1.02 0 0 Z " fill="#C2D3DF" transform="translate(289,195)"/>
<path d="M0 0 C2 3 2 3 2 6 C0.68 6.33 -0.64 6.66 -2 7 C-2 3.89448334 -1.4606285 2.64738916 0 0 Z " fill="#A3B2BB" transform="translate(393,182)"/>
<path d="M0 0 C2.97 0 5.94 0 9 0 C6.4345406 2.5654594 4.52313332 2.54046087 1 3 C0.67 2.01 0.34 1.02 0 0 Z " fill="#999B9D" transform="translate(294,156)"/>
<path d="M0 0 C-1.98 1.32 -3.96 2.64 -6 4 C-6.33 3.01 -6.66 2.02 -7 1 C-3.375 -1.125 -3.375 -1.125 0 0 Z " fill="#16405E" transform="translate(98,144)"/>
<path d="M0 0 C0.66 0.66 1.32 1.32 2 2 C1.625 4.625 1.625 4.625 1 7 C0.01 7 -0.98 7 -2 7 C-1.125 1.125 -1.125 1.125 0 0 Z " fill="#A0B6CC" transform="translate(206,78)"/>
</svg>
