<?xml version="1.0" encoding="UTF-8"?>
<svg version="1.1" xmlns="http://www.w3.org/2000/svg" width="272" height="104">
<path d="M0 0 C-2.81268963 2.18047958 -5.69937821 4.04652172 -8.75 5.875 C-13.73200243 9.00446501 -18.17850612 12.54069517 -22.6875 16.3125 C-39.53865121 30.2768245 -61.73467152 44.931347 -84.44140625 44.37109375 C-88.54151572 43.77642138 -91.47117272 42.1306127 -95 40 C-95.27207762 32.6307274 -94.50576077 25.79435695 -93.125 18.5625 C-92.95097656 17.58345703 -92.77695313 16.60441406 -92.59765625 15.59570312 C-91.26071429 8.39107143 -91.26071429 8.39107143 -89 5 C-88.071875 5.639375 -87.14375 6.27875 -86.1875 6.9375 C-73.0346462 15.44817011 -52.00486808 7.9601004 -38 5 C-35.18175289 4.41665815 -32.36258386 3.83849519 -29.54199219 3.26660156 C-27.91636726 2.93623061 -26.2918781 2.60018787 -24.66894531 2.25683594 C-16.47283027 0.56739603 -8.36286065 -0.15486779 0 0 Z " fill="#FFFFFF" transform="translate(105,51)"/>
<path d="M0 0 C4.99632419 2.98934407 8.44188807 7.09440233 10.9375 12.3125 C12.79767508 21.61337542 11.01938045 29.43786858 6.27734375 37.66796875 C1.19097557 44.99290565 -6.40966882 50.65969709 -14.4375 54.4375 C-16.875 54.1875 -16.875 54.1875 -18.4375 53.4375 C-17.839375 52.7775 -17.24125 52.1175 -16.625 51.4375 C-12.87206743 46.29062104 -10.80737913 40.88529092 -11.0859375 34.453125 C-11.95329707 29.48026348 -14.26510641 25.64157991 -17.75 22.0625 C-23.29477601 18.70984474 -28.95499236 18.13037149 -35.3125 18.25 C-36.0355835 18.25644531 -36.75866699 18.26289062 -37.50366211 18.26953125 C-45.49526951 18.37974844 -53.46656132 18.87883596 -61.4375 19.4375 C-59.94676299 16.45602597 -57.74237628 15.99699049 -54.7421875 14.609375 C-53.55826416 14.05918701 -52.37434082 13.50899902 -51.15454102 12.94213867 C-49.87427461 12.35635359 -48.59358603 11.77149042 -47.3125 11.1875 C-46.67190643 10.8943692 -46.03131287 10.6012384 -45.37130737 10.29922485 C-42.19239208 8.84577948 -39.00991442 7.40060666 -35.82275391 5.96533203 C-33.82915683 5.06558225 -31.83807612 4.16015462 -29.85302734 3.24169922 C-20.26500382 -1.19039781 -10.26046499 -4.45008804 0 0 Z " fill="#FFFFFF" transform="translate(146.4375,31.5625)"/>
<path d="M0 0 C0.78236338 9.14495858 -0.73347496 15.64745041 -6.50390625 22.88671875 C-12.81929392 29.17167082 -21.30769205 29.07799145 -29.75 29.3125 C-44.93631452 29.09533105 -60.26735152 26.60017927 -75 23 C-73.7799401 19.3398203 -72.97942184 19.17059373 -69.6875 17.375 C-62.46989193 13.22694938 -55.58332316 8.3127795 -49.46484375 2.65625 C-47 1 -47 1 -44.4921875 1.1953125 C-43.62851563 1.50210938 -42.76484375 1.80890625 -41.875 2.125 C-40.91207031 2.43179688 -39.94914062 2.73859375 -38.95703125 3.0546875 C-37.98121094 3.36664063 -37.00539062 3.67859375 -36 4 C-21.41631937 7.70313146 -12.81961815 0 0 0 Z " fill="#FFFFFF" transform="translate(134,63)"/>
<path d="M0 0 C0 0.66 0 1.32 0 2 C-12.01014395 4.97327767 -23.76703335 7.49156362 -36.1875 7.5 C-37.10031738 7.50580078 -38.01313477 7.51160156 -38.95361328 7.51757812 C-44.22795294 7.41811858 -48.08996655 6.91003345 -52 3 C-52.3125 0.125 -52.3125 0.125 -52 -3 C-40.59993519 -15.76807259 -12.91354843 -5.59439684 0 0 Z " fill="#FFFFFF" transform="translate(69,53)"/>
<path d="M0 0 C0.99 0 1.98 0 3 0 C3.495 1.485 3.495 1.485 4 3 C4.33 2.34 4.66 1.68 5 1 C5.66 1 6.32 1 7 1 C8.04005702 4.38018531 8.08004482 7.4780279 8 11 C3.66666667 11 -0.66666667 11 -5 11 C-5 9.02 -5 7.04 -5 5 C-5.66 5 -6.32 5 -7 5 C-7 6.98 -7 8.96 -7 11 C-7.66 11 -8.32 11 -9 11 C-9 9.02 -9 7.04 -9 5 C-9.66 5 -10.32 5 -11 5 C-11 6.98 -11 8.96 -11 11 C-12.32 11 -13.64 11 -15 11 C-16.20011719 11.01160156 -17.40023437 11.02320312 -18.63671875 11.03515625 C-19.98697832 11.04439556 -21.33723877 11.05350682 -22.6875 11.0625 C-23.37650391 11.07087891 -24.06550781 11.07925781 -24.77539062 11.08789062 C-26.51715244 11.09645386 -28.25900861 11.05250276 -30 11 C-31 10 -31 10 -31.0625 6.4375 C-31.041875 5.303125 -31.02125 4.16875 -31 3 C-28.69 3 -26.38 3 -24 3 C-24 2.34 -24 1.68 -24 1 C-23.34 1 -22.68 1 -22 1 C-22 1.66 -22 2.32 -22 3 C-18.70849875 3.08685287 -15.4172904 3.14033895 -12.125 3.1875 C-10.71927734 3.22520508 -10.71927734 3.22520508 -9.28515625 3.26367188 C-8.38925781 3.27333984 -7.49335938 3.28300781 -6.5703125 3.29296875 C-5.32918701 3.31653442 -5.32918701 3.31653442 -4.06298828 3.34057617 C-3.38220215 3.22818604 -2.70141602 3.1157959 -2 3 C-1.34 2.01 -0.68 1.02 0 0 Z M-25 5 C-24 9 -24 9 -24 9 Z M-22 5 C-21.67 6.32 -21.34 7.64 -21 9 C-20.67 7.68 -20.34 6.36 -20 5 C-20.66 5 -21.32 5 -22 5 Z " fill="#FFFFFF" transform="translate(215,64)"/>
<path d="M0 0 C6.93 0 13.86 0 21 0 C22.50156874 3.00313748 22.09281204 5.79067522 22.0625 9.125 C22.05347656 10.40632813 22.04445313 11.68765625 22.03515625 13.0078125 C22.02355469 13.99523438 22.01195313 14.98265625 22 16 C20.68 16 19.36 16 18 16 C17.67 12.04 17.34 8.08 17 4 C16.01 3.67 15.02 3.34 14 3 C13.67 7.29 13.34 11.58 13 16 C11.68 16 10.36 16 9 16 C8.67 12.04 8.34 8.08 8 4 C7.01 4.33 6.02 4.66 5 5 C4.67 8.63 4.34 12.26 4 16 C2.68 16 1.36 16 0 16 C0 10.72 0 5.44 0 0 Z " fill="#FFFFFF" transform="translate(19,19)"/>
<path d="M0 0 C11.44392523 -0.36915888 11.44392523 -0.36915888 13.859375 1.234375 C16.01286836 4.56786473 15.60324108 8.19546817 15 12 C13.4375 14.625 13.4375 14.625 11 16 C7.25 15.75 7.25 15.75 4 15 C4 16.98 4 18.96 4 21 C2.68 21 1.36 21 0 21 C0 14.07 0 7.14 0 0 Z M6 3 C3.7508092 4.82703227 3.7508092 4.82703227 3.75 7.5 C3.7508092 10.17296773 3.7508092 10.17296773 6 12 C7.32 12 8.64 12 10 12 C10.67673447 8.59679066 10.67673447 8.59679066 11 5 C10.34 4.34 9.68 3.68 9 3 C8.01 3 7.02 3 6 3 Z " fill="#FFFFFF" transform="translate(44,19)"/>
<path d="M0 0 C0.99 0 1.98 0 3 0 C3 0.99 3 1.98 3 3 C4.65 2.67 6.3 2.34 8 2 C10 7.75 10 7.75 10 10 C0.76 10 -8.48 10 -18 10 C-18 7.69 -18 5.38 -18 3 C-16.35 2.67 -14.7 2.34 -13 2 C-12.67 3.32 -12.34 4.64 -12 6 C-13.32 5.67 -14.64 5.34 -16 5 C-16 5.99 -16 6.98 -16 8 C-14.35 7.67 -12.7 7.34 -11 7 C-11 5.68 -11 4.36 -11 3 C-7.98968256 2.06576355 -7.13349732 1.95550089 -4 3 C-1.85744207 2.61067144 -1.85744207 2.61067144 0 2 C0 1.34 0 0.68 0 0 Z M-2 5 C-2 5.99 -2 6.98 -2 8 C-1.34 8 -0.68 8 0 8 C0 7.01 0 6.02 0 5 C-0.66 5 -1.32 5 -2 5 Z " fill="#FFFFFF" transform="translate(253,78)"/>
<path d="M0 0 C1.62418745 -0.08090971 3.24951745 -0.13914995 4.875 -0.1875 C5.77992187 -0.22230469 6.68484375 -0.25710937 7.6171875 -0.29296875 C8.79667969 -0.14794922 8.79667969 -0.14794922 10 0 C12.34770643 3.52155964 12.37669614 5.50771843 12.625 9.6875 C12.69976562 10.86699219 12.77453125 12.04648437 12.8515625 13.26171875 C12.90054688 14.16535156 12.94953125 15.06898437 13 16 C10.87527424 16.05386629 8.75016348 16.09273071 6.625 16.125 C5.44164063 16.14820312 4.25828125 16.17140625 3.0390625 16.1953125 C0 16 0 16 -2 14 C-2.3125 11 -2.3125 11 -2 8 C1.18762365 5.87491756 3.26512223 5.4979837 7 5 C6.01 4.67 5.02 4.34 4 4 C3.67 4.33 3.34 4.66 3 5 C1.33382885 5.04063832 -0.33388095 5.042721 -2 5 C-1.34 3.35 -0.68 1.7 0 0 Z M3 9 C2.67 9.99 2.34 10.98 2 12 C3.65 11.67 5.3 11.34 7 11 C7 10.34 7 9.68 7 9 C5.68 9 4.36 9 3 9 Z " fill="#FFFFFF" transform="translate(63,19)"/>
<path d="M0 0 C2.31 0 4.62 0 7 0 C7.33 0.99 7.66 1.98 8 3 C8.66 3 9.32 3 10 3 C10 4.65 10 6.3 10 8 C10.66 8 11.32 8 12 8 C12 6.35 12 4.7 12 3 C13.95764383 2.80543295 15.91615321 2.61955753 17.875 2.4375 C19.51082031 2.28087891 19.51082031 2.28087891 21.1796875 2.12109375 C24 2 24 2 26 3 C26 5.31 26 7.62 26 10 C23.69 10 21.38 10 19 10 C18.67 8.68 18.34 7.36 18 6 C17.67 7.32 17.34 8.64 17 10 C14.03 10 11.06 10 8 10 C7.67 8.68 7.34 7.36 7 6 C5.35 6 3.7 6 2 6 C2 7.32 2 8.64 2 10 C1.34 10 0.68 10 0 10 C0 6.7 0 3.4 0 0 Z M2 2 C2 2.66 2 3.32 2 4 C2.99 4 3.98 4 5 4 C5 3.34 5 2.68 5 2 C4.01 2 3.02 2 2 2 Z " fill="#FFFFFF" transform="translate(173,78)"/>
<path d="M0 0 C0.99 0 1.98 0 3 0 C3.66 1.98 4.32 3.96 5 6 C5.33 5.01 5.66 4.02 6 3 C7.65614657 2.61781233 9.32457024 2.28604898 11 2 C11.33 2.33 11.66 2.66 12 3 C12.33 2.01 12.66 1.02 13 0 C13.66 0 14.32 0 15 0 C15 3.3 15 6.6 15 10 C12.69 10 10.38 10 8 10 C8 10.99 8 11.98 8 13 C7.34 13 6.68 13 6 13 C6 12.01 6 11.02 6 10 C5.01 10 4.02 10 3 10 C3 9.01 3 8.02 3 7 C-0.11785113 7.64644661 -0.11785113 7.64644661 -1 10 C-1.99 9.67 -2.98 9.34 -4 9 C-2.68 6.03 -1.36 3.06 0 0 Z M9 4 C8.67 5.32 8.34 6.64 8 8 C8.99 7.67 9.98 7.34 11 7 C10.34 6.01 9.68 5.02 9 4 Z " fill="#FFFFFF" transform="translate(216,78)"/>
<path d="M0 0 C0.66 0 1.32 0 2 0 C2.33 0.99 2.66 1.98 3 3 C6.96 3 10.92 3 15 3 C15.33 5.64 15.66 8.28 16 11 C10.66666667 11 5.33333333 11 0 11 C0 7.37 0 3.74 0 0 Z M5 5 C5 6.32 5 7.64 5 9 C6.32 8.01 7.64 7.02 9 6 C7.68 5.67 6.36 5.34 5 5 Z " fill="#FFFFFF" transform="translate(224,64)"/>
<path d="M0 0 C0.66 0 1.32 0 2 0 C3.04005702 3.38018531 3.08004482 6.4780279 3 10 C2.01 10 1.02 10 0 10 C-0.33 8.68 -0.66 7.36 -1 6 C-1 7.32 -1 8.64 -1 10 C-3.64 10 -6.28 10 -9 10 C-9.33 8.35 -9.66 6.7 -10 5 C-10.33 5 -10.66 5 -11 5 C-11.33 6.65 -11.66 8.3 -12 10 C-12.66 10 -13.32 10 -14 10 C-14 7.36 -14 4.72 -14 2 C-9.66666667 2 -5.33333333 2 -1 2 C-0.67 1.34 -0.34 0.68 0 0 Z " fill="#FFFFFF" transform="translate(190,51)"/>
<path d="M0 0 C0.99 0 1.98 0 3 0 C3.66 1.65 4.32 3.3 5 5 C5.66 3.35 6.32 1.7 7 0 C7.99 0 8.98 0 10 0 C10 3.63 10 7.26 10 11 C9.34 11 8.68 11 8 11 C7.67 10.34 7.34 9.68 7 9 C6.67 9.66 6.34 10.32 6 11 C5.34 11 4.68 11 4 11 C3.67 10.34 3.34 9.68 3 9 C2.67 9.66 2.34 10.32 2 11 C1.34 11 0.68 11 0 11 C0 7.37 0 3.74 0 0 Z " fill="#FFFFFF" transform="translate(173,64)"/>
<path d="M0 0 C1.32 0 2.64 0 4 0 C4 5.28 4 10.56 4 16 C2.68 16 1.36 16 0 16 C0 10.72 0 5.44 0 0 Z " fill="#FFFFFF" transform="translate(12,19)"/>
<path d="M0 0 C0.66 0 1.32 0 2 0 C3.04005702 3.38018531 3.08004482 6.4780279 3 10 C-0.3 10 -3.6 10 -7 10 C-7 7.36 -7 4.72 -7 2 C-6.34 2 -5.68 2 -5 2 C-4.67 3.65 -4.34 5.3 -4 7 C-3.67 5.35 -3.34 3.7 -3 2 C-2.01 2 -1.02 2 0 2 C0 1.34 0 0.68 0 0 Z " fill="#FFFFFF" transform="translate(208,51)"/>
<path d="M0 0 C4.70588235 0.70588235 4.70588235 0.70588235 6 2 C6.125 4.5 6.125 4.5 6 7 C5 8 5 8 2.5 8.125 C0 8 0 8 -1 7 C-1.125 4 -1.125 4 -1 1 C-0.67 0.67 -0.34 0.34 0 0 Z " fill="#FFFFFF" transform="translate(231,53)"/>
<path d="M0 0 C0.66 0 1.32 0 2 0 C2 3.3 2 6.6 2 10 C0.02 10 -1.96 10 -4 10 C-4.625 7.125 -4.625 7.125 -5 4 C-4.34 3.34 -3.68 2.68 -3 2 C-2.01 2 -1.02 2 0 2 C0 1.34 0 0.68 0 0 Z M-2 4 C-2.33 4.99 -2.66 5.98 -3 7 C-2.01 7.33 -1.02 7.66 0 8 C0 6.68 0 5.36 0 4 C-0.66 4 -1.32 4 -2 4 Z " fill="#FFFFFF" transform="translate(227,51)"/>
<path d="M0 0 C1.65 0 3.3 0 5 0 C6.04005702 3.38018531 6.08004482 6.4780279 6 10 C4.02 10 2.04 10 0 10 C0 6.7 0 3.4 0 0 Z " fill="#FFFFFF" transform="translate(194,51)"/>
<path d="M0 0 C1.125 4.75 1.125 4.75 0 7 C-1.66611905 7.042721 -3.33382885 7.04063832 -5 7 C-6 6 -6 6 -6.0625 2.9375 C-6.041875 1.968125 -6.02125 0.99875 -6 0 C-3.50907189 -1.24546405 -2.58919267 -0.7767578 0 0 Z " fill="#FFFFFF" transform="translate(209,81)"/>
<path d="M0 0 C2.625 0.375 2.625 0.375 5 1 C5.625 3.375 5.625 3.375 6 6 C5.34 6.66 4.68 7.32 4 8 C1.375 7.625 1.375 7.625 -1 7 C-1.625 4.625 -1.625 4.625 -2 2 C-1.34 1.34 -0.68 0.68 0 0 Z M1 2 C1 3.32 1 4.64 1 6 C1.66 6 2.32 6 3 6 C3 4.68 3 3.36 3 2 C2.34 2 1.68 2 1 2 Z " fill="#FFFFFF" transform="translate(213,53)"/>
<path d="M0 0 C0.66 0 1.32 0 2 0 C2 3.3 2 6.6 2 10 C1.34 10 0.68 10 0 10 C0 6.7 0 3.4 0 0 Z " fill="#FFFFFF" transform="translate(173,51)"/>
<path d="M0 0 C1.32 0 2.64 0 4 0 C4 1.32 4 2.64 4 4 C2.68 4 1.36 4 0 4 C0 2.68 0 1.36 0 0 Z " fill="#FFFFFF" transform="translate(12,13)"/>
<path d="M0 0 C0.66 0 1.32 0 2 0 C2 2.31 2 4.62 2 7 C1.34 7 0.68 7 0 7 C0 4.69 0 2.38 0 0 Z " fill="#FFFFFF" transform="translate(232,81)"/>
<path d="M0 0 C0.66 0 1.32 0 2 0 C2 0.66 2 1.32 2 2 C1.34 2 0.68 2 0 2 C0 1.34 0 0.68 0 0 Z " fill="#FFFFFF" transform="translate(232,78)"/>
</svg>
